<svg width="48" height="60" viewBox="0 0 48 60" fill="none" xmlns="http://www.w3.org/2000/svg">
<g id="7e94c9ce50d3b9a02abd3c7a1c1dd18e 1" clip-path="url(#clip0_2100_2740)">
<path id="Vector" d="M23.9995 39C36.2395 39 46.3365 48.162 47.8125 60H0.185547C1.66155 48.162 11.7585 39 23.9995 39ZM18.5595 45.84C14.2761 47.2021 10.6538 50.1113 8.39955 54H23.9995L18.5595 45.84ZM29.4415 45.84L23.9995 54H39.5955C37.3437 50.1117 33.7234 47.2023 29.4415 45.84ZM41.9975 0V18C41.9975 27.942 33.9395 36 23.9975 36C14.0565 36 5.99755 27.942 5.99755 18V0H41.9975ZM11.9995 18C11.9995 24.63 17.3695 30 23.9995 30C30.6295 30 35.9995 24.63 35.9995 18H11.9995ZM35.9995 6H11.9995V12H35.9995V6Z" fill="#356BB7"/>
</g>
<defs>
<clipPath id="clip0_2100_2740">
<rect width="48" height="60" fill="white"/>
</clipPath>
</defs>
</svg>
