<svg width="60" height="60" viewBox="0 0 60 60" fill="none" xmlns="http://www.w3.org/2000/svg">
<g id="bf8f5a2203d7160d6fb73a975cb6f034 1" clip-path="url(#clip0_2100_2748)">
<path id="Vector" d="M30 60C13.431 60 0 46.569 0 30C0 13.431 13.431 0 30 0C46.569 0 60 13.431 60 30C60 46.569 46.569 60 30 60ZM23.13 53.001C20.1702 46.7229 18.4556 39.9306 18.081 33H6.186C6.76976 37.6167 8.68176 41.9645 11.6897 45.5151C14.6976 49.0657 18.672 51.6664 23.13 53.001ZM24.09 33C24.5246 40.1083 26.544 47.0293 30 53.256C33.457 47.0297 35.4763 40.1084 35.91 33H24.09ZM53.814 33H41.919C41.5444 39.9306 39.8298 46.7229 36.87 53.001C41.328 51.6664 45.3024 49.0657 48.3103 45.5151C51.3182 41.9645 53.2302 37.6167 53.814 33ZM6.186 27H18.081C18.4556 20.0694 20.1702 13.2771 23.13 6.999C18.672 8.33364 14.6976 10.9343 11.6897 14.4849C8.68176 18.0355 6.76976 22.3833 6.186 27ZM24.093 27H35.907C35.4743 19.8918 33.4559 12.9706 30 6.744C26.543 12.9703 24.5237 19.8916 24.09 27H24.093ZM36.87 6.999C39.8298 13.2771 41.5444 20.0694 41.919 27H53.814C53.2302 22.3833 51.3182 18.0355 48.3103 14.4849C45.3024 10.9343 41.328 8.33364 36.87 6.999Z" fill="#356BB7"/>
</g>
<defs>
<clipPath id="clip0_2100_2748">
<rect width="60" height="60" fill="white"/>
</clipPath>
</defs>
</svg>
