<svg width="60" height="60" viewBox="0 0 60 60" fill="none" xmlns="http://www.w3.org/2000/svg">
<g id="0296764ed22ca739733608da73332b5f 1" clip-path="url(#clip0_2100_2742)">
<path id="Vector" d="M30 0C46.569 0 60 13.431 60 30C60 46.569 46.569 60 30 60C13.431 60 0 46.569 0 30H6C6 43.254 16.746 54 30 54C43.254 54 54 43.254 54 30C54 16.746 43.254 6 30 6C21.75 6 14.472 10.161 10.155 16.5H18V22.5H0V4.5H6V12C11.472 4.71 20.187 0 30 0ZM33 15V28.755L42.729 38.484L38.484 42.729L27 31.239V15H33Z" fill="#356BB7"/>
</g>
<defs>
<clipPath id="clip0_2100_2742">
<rect width="60" height="60" fill="white"/>
</clipPath>
</defs>
</svg>
