<svg width="541" height="102" viewBox="0 0 541 102" fill="none" xmlns="http://www.w3.org/2000/svg">
<path d="M373.52 18.6293H368.056L358.145 28.6751V18.6293H353.869V43.4498H358.145V31.9462L368.521 43.4498H374.181L361.649 30.182L373.52 18.6293Z" fill="#B7191B"/>
<path d="M390.708 33.5511H383.97L387.339 24.0198L390.708 33.5511ZM385.269 18.6416L375.885 43.4499H380.467L382.709 37.3244H391.983L394.224 43.4499H398.806L389.41 18.6416H385.269Z" fill="#B7191B"/>
<path d="M401.281 43.4499H405.557V22.4027H416.399V43.4499H420.675V18.6416H401.281V43.4499Z" fill="#B7191B"/>
<path d="M429.322 36.4668V18.6293H425.047V43.4498H429.077L440.887 25.4899V43.4498H445.151V18.6293H441.132L429.322 36.4668Z" fill="#B7191B"/>
<path d="M467.731 18.6293H448.031V22.4026H455.762V43.4498H460.037V22.4026H467.731V18.6293Z" fill="#B7191B"/>
<path d="M478.941 33.5511H472.203L475.572 24.0198L478.941 33.5511ZM473.501 18.6416L464.117 43.4499H468.699L470.941 37.3244H480.215L482.457 43.4499H487.039L477.642 18.6416H473.501Z" fill="#B7191B"/>
<path d="M494.29 18.6416V29.447C494.29 34.1391 493.567 39.7256 490.075 39.7256C489.828 39.7242 489.582 39.6996 489.34 39.6521L488.703 39.5418V43.4254L489.156 43.4989C489.674 43.5908 490.199 43.6359 490.725 43.6336C495.919 43.6336 498.565 39.0885 498.565 30.1576V22.4027H505.989V43.4499H510.253V18.6416H494.29Z" fill="#B7191B"/>
<path d="M357.397 54.966L354.923 49.4775H353.869V57.7102H355.033V52.4545L356.92 56.6321H357.875L359.713 52.479V57.7102H360.877V49.4775H359.811L357.397 54.966Z" fill="#B7191B"/>
<path d="M362.113 57.7102H367.332V56.6198H363.277V54.1084H366.732V53.018H363.277V50.5801H367.332V49.4775H362.113V57.7102Z" fill="#B7191B"/>
<path d="M371.278 53.0791V50.6289H373.63V56.6686H370.58C371.074 55.5555 371.313 54.3456 371.278 53.1281M374.794 49.5263H370.151V52.6135C370.25 54.0188 369.953 55.4237 369.293 56.6686H368.473V59.6946H369.624V57.7589H374.525V59.6946H375.676V56.6686H374.77L374.794 49.5263Z" fill="#B7191B"/>
<path d="M378.015 55.456V49.4775H376.852V57.7102H377.881L381.642 51.7194V57.7102H382.806V49.4775H381.776L378.015 55.456Z" fill="#B7191B"/>
<path d="M389.827 49.4775H388.675V56.6198H385.269V49.4775H384.105V57.7102H389.582V59.6458H390.745V56.6198H389.827V49.4775Z" fill="#B7191B"/>
<path d="M392.937 55.456V49.4775H391.773V57.7102H392.803L396.564 51.7194V57.7102H397.715V49.4775H396.698L392.937 55.456Z" fill="#B7191B"/>
<path d="M403.534 53.018H400.129V49.4775H398.965V57.7102H400.129V54.1084H403.534V57.7102H404.686V49.4775H403.534V53.018Z" fill="#B7191B"/>
<path d="M409.085 50.5063C409.506 50.5025 409.913 50.6522 410.231 50.9273C410.549 51.2025 410.756 51.5842 410.813 52.0009V52.2214H412.038L411.964 51.8907C411.871 51.1992 411.525 50.5666 410.994 50.1143C410.462 49.6621 409.783 49.4221 409.085 49.4405C408.706 49.4316 408.328 49.4985 407.975 49.6374C407.621 49.7762 407.299 49.9841 407.027 50.249C406.206 51.0698 406.182 51.8294 406.182 53.6181C406.182 55.4067 406.182 56.1663 407.027 56.9871C407.299 57.252 407.621 57.4599 407.975 57.5987C408.328 57.7376 408.706 57.8045 409.085 57.7956C409.783 57.814 410.462 57.574 410.994 57.1218C411.525 56.6695 411.871 56.0369 411.964 55.3454L412.038 55.0024H410.886V55.2229C410.832 55.5434 410.691 55.8431 410.479 56.0897C410.268 56.3362 409.993 56.5204 409.684 56.6225C409.375 56.7245 409.045 56.7405 408.728 56.6688C408.411 56.597 408.119 56.4402 407.885 56.2153C407.419 55.7497 407.382 55.1984 407.382 53.6303C407.382 52.0622 407.382 51.5231 407.885 51.0453C408.211 50.723 408.651 50.5425 409.11 50.5431" fill="#B7191B"/>
<path d="M419.35 49.4775H417.758L414.609 52.7363V49.4775H413.445V57.7102H414.609V54.1451L418.003 57.7102H419.632L415.43 53.4223L419.35 49.4775Z" fill="#B7191B"/>
<path d="M422.278 50.5066C422.737 50.506 423.177 50.6865 423.504 51.0088C423.969 51.4866 424.006 52.0257 424.006 53.5938C424.006 55.1619 424.006 55.7132 423.504 56.1788C423.177 56.5011 422.737 56.6816 422.278 56.681C422.051 56.6841 421.825 56.6411 421.615 56.5548C421.404 56.4685 421.213 56.3406 421.053 56.1788C420.588 55.7132 420.539 55.1619 420.539 53.5938C420.539 52.0257 420.539 51.4866 421.053 51.0088C421.213 50.847 421.404 50.7191 421.615 50.6328C421.825 50.5465 422.051 50.5035 422.278 50.5066ZM422.278 49.4162C421.899 49.4087 421.522 49.4762 421.169 49.615C420.815 49.7538 420.493 49.961 420.22 50.2248C419.436 51.0088 419.375 51.6949 419.375 53.5938C419.375 55.4927 419.436 56.1788 420.22 56.9628C420.493 57.2282 420.815 57.4374 421.168 57.5782C421.521 57.7191 421.898 57.7889 422.278 57.7836C422.659 57.7916 423.037 57.723 423.391 57.582C423.744 57.441 424.066 57.2305 424.337 56.9628C425.121 56.1788 425.194 55.4927 425.194 53.5938C425.194 51.6949 425.121 51.0088 424.337 50.2248C424.065 49.9593 423.743 49.751 423.389 49.6121C423.036 49.4732 422.658 49.4066 422.278 49.4162Z" fill="#B7191B"/>
<path d="M426.137 57.7102H431.356V56.6198H427.288V54.1084H430.755V53.018H427.288V50.5801H431.356V49.4775H426.137V57.7102Z" fill="#B7191B"/>
<path d="M439.982 50.5063C440.402 50.5025 440.81 50.6522 441.128 50.9273C441.446 51.2025 441.652 51.5842 441.709 52.0009V52.2214H442.934L442.861 51.8907C442.767 51.1992 442.422 50.5666 441.89 50.1143C441.359 49.6621 440.679 49.4221 439.982 49.4405C439.602 49.4329 439.225 49.5005 438.872 49.6393C438.519 49.778 438.196 49.9853 437.923 50.249C437.139 51.0331 437.078 51.7192 437.078 53.6181C437.078 55.517 437.139 56.203 437.923 56.9871C438.196 57.2508 438.519 57.4581 438.872 57.5968C439.225 57.7356 439.602 57.8032 439.982 57.7956C440.679 57.814 441.359 57.574 441.89 57.1218C442.422 56.6695 442.767 56.0369 442.861 55.3454L442.934 55.0024H441.782V55.2229C441.728 55.5434 441.588 55.8431 441.376 56.0897C441.164 56.3362 440.889 56.5204 440.58 56.6225C440.272 56.7245 439.941 56.7405 439.624 56.6688C439.307 56.597 439.016 56.4402 438.781 56.2153C438.315 55.7497 438.279 55.1984 438.279 53.6303C438.279 52.0622 438.279 51.5231 438.781 51.0453C439.107 50.723 439.547 50.5425 440.006 50.5431" fill="#B7191B"/>
<path d="M443.498 50.5801H445.777V57.7102H446.928V50.5801H449.219V49.4775H443.498V50.5801Z" fill="#B7191B"/>
<path d="M451.498 50.5801H453.372C454.058 50.5801 454.867 50.8129 454.867 51.9767C454.884 52.1731 454.856 52.3708 454.786 52.5549C454.715 52.739 454.604 52.9046 454.46 53.0392C454.316 53.1738 454.143 53.2738 453.955 53.3317C453.766 53.3896 453.567 53.4038 453.372 53.3733H451.498V50.5801ZM453.433 49.4775H450.334V57.7102H451.498V54.4637H453.458C454.119 54.4637 454.753 54.201 455.221 53.7335C455.688 53.2659 455.951 52.6318 455.951 51.9706C455.951 51.3094 455.688 50.6753 455.221 50.2077C454.753 49.7402 454.119 49.4775 453.458 49.4775" fill="#B7191B"/>
<path d="M472.913 50.5064C473.372 50.5058 473.812 50.6864 474.138 51.0087C474.604 51.4865 474.641 52.0256 474.641 53.5937C474.641 55.1618 474.641 55.7131 474.138 56.1786C473.812 56.501 473.372 56.6815 472.913 56.6809C472.686 56.6839 472.46 56.641 472.249 56.5547C472.039 56.4684 471.848 56.3405 471.688 56.1786C471.223 55.7131 471.174 55.1618 471.174 53.5937C471.174 52.0256 471.174 51.4865 471.688 51.0087C471.848 50.8469 472.039 50.719 472.249 50.6327C472.46 50.5463 472.686 50.5034 472.913 50.5064ZM472.913 49.4161C472.534 49.4086 472.157 49.4761 471.803 49.6149C471.45 49.7537 471.128 49.9609 470.855 50.2247C470.071 51.0087 470.01 51.6948 470.01 53.5937C470.01 55.4926 470.071 56.1786 470.855 56.9627C471.411 57.4901 472.147 57.7841 472.913 57.7841C473.679 57.7841 474.416 57.4901 474.971 56.9627C475.755 56.1786 475.829 55.4926 475.829 53.5937C475.829 51.6948 475.755 51.0087 474.971 50.2247C474.699 49.9598 474.377 49.7518 474.024 49.613C473.67 49.4741 473.293 49.4072 472.913 49.4161Z" fill="#B7191B"/>
<path d="M478.131 56.6197V54.0592H480.091C480.998 54.0592 481.537 54.537 481.537 55.2843C481.537 56.0316 480.998 56.5707 480.091 56.5707L478.131 56.6197ZM480.005 52.9444H478.131V50.4942H480.005C480.532 50.4942 481.414 50.6534 481.414 51.7193C481.414 52.7851 480.532 52.9444 480.005 52.9444ZM481.733 53.4712L481.904 53.3364C482.121 53.1303 482.292 52.8808 482.406 52.6043C482.52 52.3279 482.574 52.0305 482.566 51.7315C482.565 51.4183 482.5 51.1086 482.374 50.8218C482.248 50.535 482.064 50.2772 481.834 50.0645C481.605 49.8518 481.333 49.6888 481.038 49.5857C480.742 49.4826 480.428 49.4415 480.116 49.4651H477.004V57.6977H480.189C480.516 57.7372 480.847 57.705 481.161 57.6034C481.474 57.5018 481.761 57.3332 482.002 57.1094C482.244 56.8855 482.433 56.6118 482.558 56.3072C482.683 56.0026 482.74 55.6744 482.725 55.3456C482.736 55.032 482.68 54.7198 482.559 54.4301C482.439 54.1405 482.257 53.8802 482.027 53.6672C481.947 53.5942 481.861 53.5286 481.77 53.4712" fill="#B7191B"/>
<path d="M485.642 54.7577L486.868 51.4009L488.093 54.7577H485.642ZM486.378 49.4775L483.352 57.7102H484.577L485.238 55.848H488.399L489.061 57.7102H490.286L487.26 49.4775H486.378Z" fill="#B7191B"/>
<path d="M495.798 53.018H492.392V49.4775H491.229V57.7102H492.392V54.1084H495.798V57.7102H496.95V49.4775H495.798V53.018Z" fill="#B7191B"/>
<path d="M499.301 55.456V49.4775H498.137V57.7102H499.166L502.927 51.7194V57.7102H504.078V49.4775H503.062L499.301 55.456Z" fill="#B7191B"/>
<path d="M505.168 49.4775V57.7102H510.387V56.6198H506.332V54.1084H509.787V53.018H506.332V50.5678H510.387V49.4775H505.168Z" fill="#B7191B"/>
<path d="M458.921 51.3274L457.622 55.0027H460.195L458.921 51.3274ZM461.113 57.7347L460.525 56.0808H457.254L456.679 57.7347H455.355L458.381 49.453H459.398L462.424 57.7347H461.113Z" fill="#B7191B"/>
<path d="M468.209 57.7347L466.408 54.5617L464.607 57.7347H463.174L465.722 53.4959L463.333 49.453H464.779L466.408 52.4178L468.05 49.453H469.495L467.094 53.4959L469.667 57.7347H468.209Z" fill="#B7191B"/>
<path d="M318.036 26.029H307.133L325.803 44.6995C326.156 45.057 326.353 45.5389 326.353 46.0409C326.353 46.543 326.156 47.0249 325.803 47.3824L307.182 66.0039H318.085C320.126 66.0035 322.082 65.1927 323.525 63.7497L338.814 48.4728C339.137 48.1517 339.393 47.7699 339.568 47.3494C339.743 46.9289 339.833 46.478 339.833 46.0226C339.833 45.5671 339.743 45.1162 339.568 44.6957C339.393 44.2752 339.137 43.8934 338.814 43.5724L323.488 28.2464C322.039 26.8061 320.079 25.9961 318.036 25.9922" fill="#193D6E"/>
<path d="M309.791 10.4089H298.924C297.901 10.408 296.887 10.6088 295.941 10.9998C294.995 11.3908 294.136 11.9643 293.411 12.6876L278.183 27.9278C277.854 28.2527 277.592 28.6399 277.413 29.0668C277.235 29.4938 277.143 29.952 277.143 30.4148C277.143 30.8776 277.235 31.3358 277.413 31.7628C277.592 32.1897 277.854 32.5769 278.183 32.9017L293.362 48.093C294.827 49.5515 296.809 50.3708 298.875 50.3716H309.742L291.059 31.6889C290.89 31.5214 290.756 31.322 290.664 31.1023C290.572 30.8825 290.525 30.6468 290.525 30.4087C290.525 30.1706 290.572 29.9348 290.664 29.715C290.756 29.4953 290.89 29.2959 291.059 29.1284L309.791 10.4089Z" fill="#B7191B"/>
<path d="M7.75487 69.4465C15.6608 76.6256 23.1584 81.7547 30.2477 84.8337C37.6756 87.9869 45.6761 89.5678 53.7451 89.4769C64.1176 89.4769 72.7341 87.435 79.5946 83.3514C86.4552 79.2677 89.8814 74.3673 89.8732 68.6502C89.8732 62.9821 87.2597 58.7555 82.0326 55.9704C76.8055 53.1854 68.8546 51.801 58.1799 51.8173H53.9288V40.3137C54.6516 40.3749 55.4602 40.4239 56.379 40.4484C57.2978 40.4729 58.5597 40.4484 60.1891 40.4484C67.9644 40.4484 73.6529 39.4234 77.2547 37.3734C78.9754 36.4317 80.394 35.0215 81.3459 33.3063C82.2978 31.5912 82.744 29.6413 82.6329 27.6829C82.6329 23.2154 80.4318 19.5932 76.0296 16.8163C71.6274 14.0394 65.7388 12.6591 58.3637 12.6755C51.7244 12.6877 45.1377 13.8525 38.8969 16.118C32.0128 18.6679 25.5215 22.1734 19.6138 26.5313L12.1897 16.3875C18.8701 11.386 26.3173 7.501 34.2415 4.88383C42.1912 2.28928 50.5036 0.978321 58.866 1.00027C69.9817 1.00027 78.8392 3.45047 85.4383 8.35086C88.5742 10.5086 91.1227 13.4141 92.8532 16.8045C94.5837 20.1949 95.4416 23.9633 95.3494 27.7687C95.3941 31.1539 94.6694 34.5051 93.23 37.5694C91.6874 40.6354 89.4364 43.2896 86.6634 45.3121C91.4574 47.2554 95.6238 50.4809 98.7062 54.6351C101.467 58.646 102.891 63.4268 102.773 68.2949C102.773 77.4178 98.2161 85.1482 89.1014 91.486C79.9867 97.8239 68.4299 100.993 54.4311 100.993C44.2572 101.13 34.1526 99.3 24.6735 95.6023C15.4143 91.716 7.02548 86.0179 0 78.843L7.75487 69.4465Z" fill="#DEB850"/>
<path d="M186.08 64.105H179.33V40.9261H170.582V52.7238C170.769 55.7718 169.797 58.7777 167.863 61.1403C166.856 62.2019 165.629 63.0305 164.268 63.5681C162.908 64.1056 161.446 64.339 159.985 64.252C159.407 64.2437 158.83 64.1986 158.258 64.1173V57.9918C158.663 58.0652 159.072 58.1102 159.483 58.1265C160.147 58.1386 160.806 58.0156 161.421 57.7649C162.036 57.5143 162.594 57.1414 163.06 56.6687C163.876 55.5628 164.231 54.1842 164.053 52.8218V34.8374H186.043L186.08 64.105Z" fill="#DEB850"/>
<path d="M221.056 56.4971C220.064 58.3391 218.763 59.9967 217.209 61.3975C214.338 63.7511 210.729 65.0177 207.016 64.9748C200.254 64.9748 192.842 60.2704 192.842 49.6121C192.842 40.2033 198.342 33.9798 206.943 33.9798C209.099 33.8761 211.247 34.3127 213.192 35.2497C215.136 36.1868 216.816 37.5948 218.079 39.3458C219.957 42.5766 220.895 46.2684 220.786 50.0041V51.07H199.862C199.848 52.1053 200.043 53.1327 200.435 54.0911C200.827 55.0494 201.408 55.9191 202.143 56.6484C202.878 57.3777 203.752 57.9516 204.713 58.3361C205.675 58.7205 206.704 58.9075 207.739 58.8861C209.421 58.8893 211.056 58.3286 212.382 57.2935C213.693 56.2127 214.716 54.8236 215.359 53.2506L221.056 56.4971ZM213.84 45.5693C213.534 44.0111 212.688 42.611 211.451 41.6158C210.214 40.6206 208.665 40.0944 207.077 40.1298C205.495 40.1421 203.963 40.6847 202.726 41.6709C201.489 42.6571 200.618 44.0298 200.254 45.5693H213.84Z" fill="#DEB850"/>
<path d="M207.017 67.7682C204.659 67.7608 202.327 67.2818 200.157 66.3593C198.07 70.9613 195.05 75.0791 191.287 78.451C183.381 85.8016 173.331 89.4769 161.137 89.4769C148.943 89.4769 138.894 85.8016 130.988 78.451C127.13 75.0217 124.062 70.7971 121.993 66.0682C119.925 61.3393 118.906 56.2183 119.006 51.0579C119.006 39.9585 122.959 30.7866 130.865 23.5422C138.771 16.2977 148.85 12.6755 161.1 12.6755C173.351 12.6755 183.43 16.2977 191.336 23.5422C194.387 26.304 196.948 29.5642 198.907 33.1837C201.382 31.9199 204.128 31.2767 206.907 31.3093C208.841 31.3057 210.764 31.6076 212.604 32.2036C209.939 25.7104 205.843 19.9021 200.622 15.2115C190.315 5.72922 177.153 0.992179 161.137 1.00035C145.121 1.00851 131.992 5.74556 121.75 15.2115C111.435 24.6856 106.277 36.6344 106.277 51.0579C106.277 65.4813 111.423 77.3893 121.714 86.7817C132.004 96.2231 145.146 100.948 161.137 100.956C177.129 100.964 190.303 96.2395 200.659 86.7817C206.784 81.336 211.343 74.3533 213.865 66.5553C211.669 67.3506 209.353 67.7609 207.017 67.7682Z" fill="#DEB850"/>
<path d="M232.853 40.9263H224.277V34.8008H248.253V40.9263H239.677V64.1052H232.927L232.853 40.9263Z" fill="#DEB850"/>
<path d="M286.846 88.7418C285.774 89.4308 284.517 89.773 283.244 89.7219C282.147 89.7439 281.06 89.5093 280.069 89.0367C279.079 88.5642 278.213 87.8668 277.54 87.0001C276.866 86.1335 276.405 85.1215 276.192 84.045C275.98 82.9685 276.021 81.8572 276.314 80.7996C276.607 79.742 277.143 78.7674 277.879 77.9536C278.615 77.1398 279.531 76.5092 280.554 76.1121C281.577 75.715 282.678 75.5624 283.771 75.6664C284.863 75.7705 285.916 76.1283 286.846 76.7114V80.5704C286.467 80.0904 285.988 79.6991 285.442 79.424C284.896 79.1489 284.296 78.9966 283.685 78.9778C283.204 78.9856 282.73 79.0931 282.292 79.2935C281.855 79.4939 281.464 79.7828 281.144 80.142C280.824 80.5012 280.582 80.9229 280.433 81.3804C280.284 81.8379 280.232 82.3213 280.279 82.8001C280.243 83.2657 280.305 83.7336 280.461 84.1738C280.617 84.614 280.863 85.0167 281.184 85.356C281.505 85.6953 281.893 85.9637 282.324 86.1438C282.755 86.3239 283.218 86.4118 283.685 86.4019C284.281 86.3821 284.868 86.2441 285.41 85.9959C285.953 85.7478 286.441 85.3944 286.846 84.9563V88.7418Z" fill="#193D6E"/>
<path d="M292.27 76.0008V83.9884L297.416 76.0008H301.091V89.3176H297.489V81.33L292.332 89.3176H288.656V76.0008H292.27Z" fill="#193D6E"/>
<path d="M313.283 88.7418C312.214 89.4353 310.955 89.7779 309.682 89.7219C308.584 89.7439 307.497 89.5093 306.507 89.0367C305.517 88.5642 304.65 87.8668 303.977 87.0001C303.304 86.1335 302.843 85.1215 302.63 84.045C302.417 82.9685 302.459 81.8572 302.751 80.7996C303.044 79.742 303.58 78.7674 304.316 77.9536C305.052 77.1398 305.968 76.5092 306.991 76.1121C308.014 75.715 309.116 75.5624 310.208 75.6664C311.301 75.7705 312.354 76.1283 313.283 76.7114V80.5704C312.906 80.0892 312.427 79.697 311.881 79.4217C311.334 79.1465 310.734 78.9949 310.123 78.9778C309.642 78.9874 309.169 79.0961 308.732 79.2971C308.296 79.4981 307.905 79.7871 307.586 80.1459C307.266 80.5047 307.024 80.9256 306.874 81.3823C306.725 81.839 306.671 82.3217 306.717 82.8001C306.681 83.2657 306.743 83.7336 306.898 84.1738C307.054 84.614 307.3 85.0167 307.621 85.356C307.942 85.6953 308.33 85.9637 308.761 86.1438C309.192 86.3239 309.656 86.4118 310.123 86.4019C310.719 86.3821 311.305 86.2441 311.848 85.9959C312.39 85.7478 312.878 85.3944 313.283 84.9563V88.7418Z" fill="#193D6E"/>
<path d="M317.006 79.2228H314.078V76.0008H323.658V79.1983H320.73V89.3176H317.055L317.006 79.2228Z" fill="#193D6E"/>
<path d="M324.994 76.0008H332.982V79.1983H328.718V81.0605H332.577V83.9884H328.718V86.1201H332.982V89.3176H324.994V76.0008Z" fill="#193D6E"/>
<path d="M335.982 76.0008H339.657L341.997 84.1232L344.423 76.0008H348.098L350.046 89.3176H346.469L345.476 81.5995L343.234 89.3176H340.784L338.542 81.5995L337.55 89.3176H333.973L335.982 76.0008Z" fill="#193D6E"/>
<path d="M351.518 76.0008H359.505V79.1983H355.242V81.0605H359.125V83.9884H355.266V86.1201H359.53V89.3176H351.542L351.518 76.0008Z" fill="#193D6E"/>
<path d="M365.335 82.6899C365.311 81.2699 365.71 79.8747 366.481 78.6822C367.252 77.4896 368.361 76.5536 369.666 75.9932C370.971 75.4329 372.413 75.2736 373.809 75.5356C375.205 75.7977 376.491 76.4693 377.504 77.4648C378.517 78.4604 379.21 79.7348 379.497 81.1259C379.783 82.517 379.648 83.9618 379.111 85.2762C378.573 86.5907 377.656 87.7154 376.477 88.5071C375.298 89.2988 373.91 89.7217 372.49 89.7219C371.545 89.7814 370.599 89.6413 369.712 89.3106C368.825 88.9799 368.018 88.4661 367.343 87.8027C366.668 87.1393 366.14 86.3411 365.794 85.4602C365.448 84.5792 365.292 83.6353 365.335 82.6899ZM375.797 82.6899C375.797 80.1172 374.217 78.8431 372.49 78.8431C370.762 78.8431 369.182 80.0682 369.182 82.6899C369.182 85.3116 370.75 86.5244 372.49 86.5244C374.229 86.5244 375.797 85.2503 375.797 82.6899Z" fill="#193D6E"/>
<path d="M382.401 76.0008H386.077L388.416 84.1232L390.854 76.0008H394.53L396.478 89.3176H392.9L391.908 81.5995L389.666 89.3176H387.216L384.974 81.5995L383.982 89.3176H380.404L382.401 76.0008Z" fill="#193D6E"/>
<path d="M407.799 88.7418C406.73 89.4353 405.471 89.7779 404.197 89.7219C403.1 89.7439 402.013 89.5093 401.023 89.0367C400.032 88.5642 399.166 87.8668 398.493 87.0001C397.82 86.1335 397.358 85.1215 397.145 84.045C396.933 82.9685 396.974 81.8572 397.267 80.7996C397.56 79.742 398.096 78.7674 398.832 77.9536C399.568 77.1398 400.484 76.5092 401.507 76.1121C402.53 75.715 403.632 75.5624 404.724 75.6664C405.816 75.7705 406.869 76.1283 407.799 76.7114V80.5704C407.421 80.0892 406.942 79.697 406.396 79.4217C405.85 79.1465 405.25 78.9949 404.638 78.9778C404.158 78.9874 403.684 79.0961 403.248 79.2971C402.811 79.4981 402.421 79.7871 402.101 80.1459C401.782 80.5047 401.539 80.9256 401.39 81.3823C401.24 81.839 401.187 82.3217 401.232 82.8001C401.196 83.2657 401.258 83.7336 401.414 84.1738C401.57 84.614 401.816 85.0167 402.137 85.356C402.458 85.6953 402.846 85.9637 403.277 86.1438C403.708 86.3239 404.171 86.4118 404.638 86.4019C405.235 86.3821 405.821 86.2441 406.364 85.9959C406.906 85.7478 407.394 85.3944 407.799 84.9563V88.7418Z" fill="#193D6E"/>
<path d="M420.54 76.0008C424.142 76.0008 424.51 78.3652 424.51 79.3943C424.497 80.0144 424.291 80.615 423.92 81.1117C423.548 81.6084 423.03 81.9761 422.439 82.163C423.235 82.3025 423.955 82.7204 424.472 83.342C424.988 83.9637 425.266 84.7486 425.257 85.5566C425.257 87.431 424.032 89.2319 420.896 89.2319H414.084V76.0008H420.54ZM419.376 81.2565C420.834 81.2565 421.092 80.4969 421.092 80.0314C421.092 79.3331 420.651 78.7083 419.376 78.7083H417.821V81.2932L419.376 81.2565ZM419.523 86.6591C420.099 86.6591 421.52 86.6592 421.52 85.2503C421.52 83.8414 420.136 83.9149 419.523 83.9149H417.821V86.6591H419.523Z" fill="#193D6E"/>
<path d="M431.406 76.0008H437.017C440.803 76.0008 441.918 78.6348 441.918 80.4601C441.918 82.2855 440.839 84.9318 437.017 84.9318H435.082V89.3176H431.406V76.0008ZM435.082 81.9915H436.147C437.814 81.9915 437.973 81.0237 437.973 80.4601C437.973 79.8966 437.752 78.941 436.147 78.941H435.082V81.9915Z" fill="#193D6E"/>
<path d="M443.007 82.6899C442.983 81.2699 443.382 79.8747 444.153 78.6822C444.924 77.4896 446.033 76.5536 447.338 75.9932C448.643 75.4329 450.085 75.2736 451.481 75.5356C452.877 75.7977 454.163 76.4693 455.176 77.4648C456.189 78.4604 456.882 79.7348 457.168 81.1259C457.455 82.517 457.32 83.9618 456.782 85.2762C456.245 86.5907 455.328 87.7154 454.149 88.5071C452.97 89.2988 451.582 89.7217 450.162 89.7219C449.217 89.7814 448.271 89.6413 447.384 89.3106C446.497 88.9799 445.69 88.4661 445.015 87.8027C444.34 87.1393 443.812 86.3411 443.466 85.4602C443.12 84.5792 442.964 83.6353 443.007 82.6899ZM453.469 82.6899C453.469 80.1172 451.889 78.8431 450.162 78.8431C448.434 78.8431 446.842 80.0682 446.842 82.6899C446.842 85.3116 448.422 86.5244 450.162 86.5244C451.901 86.5244 453.457 85.2503 453.457 82.6899H453.469Z" fill="#193D6E"/>
<path d="M468.93 88.7418C467.858 89.4308 466.601 89.773 465.328 89.7219C464.231 89.7439 463.144 89.5093 462.153 89.0367C461.163 88.5641 460.297 87.8667 459.624 87.0001C458.95 86.1335 458.489 85.1215 458.276 84.045C458.064 82.9685 458.105 81.8571 458.398 80.7996C458.691 79.742 459.227 78.7674 459.963 77.9536C460.699 77.1398 461.615 76.5092 462.638 76.1121C463.661 75.715 464.762 75.5624 465.855 75.6664C466.947 75.7705 468 76.1283 468.93 76.7114V80.5704C468.551 80.0904 468.072 79.6991 467.526 79.424C466.98 79.1488 466.38 78.9965 465.769 78.9778C465.288 78.9856 464.814 79.0931 464.376 79.2935C463.939 79.4939 463.548 79.7828 463.228 80.142C462.908 80.5012 462.666 80.9229 462.517 81.3804C462.368 81.8379 462.316 82.3213 462.363 82.8001C462.327 83.2657 462.389 83.7336 462.545 84.1738C462.701 84.614 462.947 85.0167 463.268 85.356C463.589 85.6953 463.977 85.9636 464.408 86.1438C464.838 86.3239 465.302 86.4118 465.769 86.4019C466.365 86.3821 466.952 86.2441 467.494 85.9959C468.037 85.7478 468.525 85.3944 468.93 84.9563V88.7418Z" fill="#193D6E"/>
<path d="M480.594 88.7419C479.528 89.4329 478.273 89.7754 477.004 89.722C475.906 89.7458 474.818 89.5128 473.827 89.0415C472.835 88.5702 471.968 87.8737 471.293 87.0075C470.619 86.1414 470.156 85.1296 469.942 84.0528C469.728 82.976 469.768 81.8641 470.06 80.8058C470.352 79.7475 470.888 78.7721 471.623 77.9575C472.359 77.1428 473.276 76.5114 474.299 76.1136C475.322 75.7159 476.424 75.5628 477.517 75.6666C478.61 75.7704 479.663 76.1282 480.594 76.7114V80.5705C480.218 80.0895 479.742 79.6974 479.197 79.4221C478.653 79.1467 478.055 78.9951 477.445 78.9779C476.964 78.9857 476.49 79.0932 476.052 79.2936C475.615 79.494 475.224 79.7829 474.904 80.1421C474.584 80.5013 474.342 80.923 474.193 81.3805C474.044 81.838 473.992 82.3214 474.039 82.8002C474.003 83.2657 474.065 83.7337 474.221 84.1739C474.377 84.6141 474.623 85.0168 474.944 85.3561C475.264 85.6954 475.653 85.9637 476.084 86.1439C476.514 86.324 476.978 86.4119 477.445 86.402C478.04 86.3839 478.625 86.2467 479.166 85.9984C479.707 85.75 480.192 85.3957 480.594 84.9563V88.7419Z" fill="#193D6E"/>
<path d="M486.057 76.0008V83.9884L491.203 76.0008H494.878V89.3176H491.276V81.33L486.119 89.3176H482.443V76.0008H486.057Z" fill="#193D6E"/>
<path d="M500.843 76.0008V83.9884L506.001 76.0008H509.676V89.3176H506.087V81.33L500.929 89.3176H497.254V76.0008H500.843Z" fill="#193D6E"/>
<path d="M522.42 1.00034H182.235C183.582 1.47813 184.881 2.00492 186.167 2.58072H522.42C526.826 2.58396 531.051 4.33483 534.167 7.44919C537.284 10.5636 539.038 14.7871 539.044 19.193V82.7511C539.038 87.1582 537.284 91.383 534.168 94.4993C531.052 97.6156 526.827 99.3692 522.42 99.3757H186.069C184.783 99.9393 183.484 100.478 182.137 100.956H522.42C527.248 100.956 531.879 99.0381 535.293 95.624C538.707 92.2099 540.625 87.5794 540.625 82.7511V19.193C540.625 16.8029 540.154 14.4362 539.239 12.2282C538.324 10.0201 536.983 8.01404 535.292 6.32453C533.601 4.63502 531.594 3.29521 529.386 2.38166C527.177 1.46811 524.81 0.99873 522.42 1.00034Z" fill="#DEB850" stroke="#DEB850" stroke-width="0.75" stroke-miterlimit="10"/>
</svg>
