<svg width="52" height="60" viewBox="0 0 52 60" fill="none" xmlns="http://www.w3.org/2000/svg">
<g id="8675604deb1b557f02a311abbdfc679b 1">
<path id="Vector" d="M38.9278 41.2284L39.4228 41.7262L39.9234 41.2284C40.5111 40.6408 41.2087 40.1747 41.9764 39.8567C42.7442 39.5386 43.5671 39.375 44.3981 39.375C45.2292 39.375 46.052 39.5386 46.8198 39.8567C47.5876 40.1747 48.2852 40.6408 48.8728 41.2284C49.4604 41.8161 49.9266 42.5137 50.2446 43.2814C50.5626 44.0492 50.7263 44.8721 50.7263 45.7031C50.7263 46.5342 50.5626 47.357 50.2446 48.1248C49.9266 48.8926 49.4604 49.5902 48.8728 50.1778L39.4228 59.625L29.9784 50.1778C28.7917 48.9911 28.125 47.3815 28.125 45.7031C28.125 44.0248 28.7917 42.4152 29.9784 41.2284C31.1652 40.0417 32.7748 39.375 34.4531 39.375C36.1315 39.375 37.7411 40.0417 38.9278 41.2284ZM22.5 36.5625V42.1875C18.0245 42.1875 13.7322 43.9654 10.5676 47.1301C7.4029 50.2948 5.625 54.587 5.625 59.0625H0C6.78057e-05 53.2169 2.27514 47.6008 6.34351 43.4033C10.4119 39.2058 15.9542 36.7564 21.7969 36.5737L22.5 36.5625ZM22.5 0C31.8234 0 39.375 7.55156 39.375 16.875C39.3766 21.2415 37.685 25.4385 34.6559 28.5835C31.6268 31.7285 27.4963 33.5764 23.1328 33.7388L22.5 33.75C13.1766 33.75 5.625 26.1984 5.625 16.875C5.62344 12.5085 7.31504 8.31152 10.3441 5.16653C13.3732 2.02154 17.5037 0.173592 21.8672 0.01125L22.5 0ZM22.5 5.625C16.2844 5.625 11.25 10.6594 11.25 16.875C11.25 23.0906 16.2844 28.125 22.5 28.125C28.7156 28.125 33.75 23.0906 33.75 16.875C33.75 10.6594 28.7156 5.625 22.5 5.625Z" fill="#356BB7"/>
</g>
</svg>
