<svg width="80" height="80" viewBox="0 0 80 80" fill="none" xmlns="http://www.w3.org/2000/svg">
<g id="Frame 12">
<path id="&#238;&#176;&#162;" d="M37.9165 63.9903H36.9757C36.7069 63.9903 36.4605 64.0799 36.2365 64.2591C36.0573 64.4383 35.9677 64.6623 35.9677 64.9311V66.2751C35.9677 66.5439 36.0573 66.7679 36.2365 66.9471C36.4605 67.1711 36.7069 67.2831 36.9757 67.2831H37.9165C38.1853 67.2831 38.4093 67.1711 38.5885 66.9471C38.7677 66.7679 38.8573 66.5439 38.8573 66.2751V64.9311C38.8573 64.6623 38.7677 64.4383 38.5885 64.2591C38.4093 64.0799 38.1853 63.9903 37.9165 63.9903ZM43.0237 63.9903H42.0829C41.8141 63.9903 41.5901 64.0799 41.4109 64.2591C41.2317 64.4383 41.1421 64.6623 41.1421 64.9311V66.2751C41.1421 66.5439 41.2317 66.7679 41.4109 66.9471C41.5901 67.1711 41.8141 67.2831 42.0829 67.2831H43.0237C43.2925 67.2831 43.5165 67.1711 43.6957 66.9471C43.9197 66.7679 44.0317 66.5439 44.0317 66.2751V64.9311C44.0317 64.6623 43.9197 64.4383 43.6957 64.2591C43.5165 64.0799 43.2925 63.9903 43.0237 63.9903ZM69.9709 6.9375H10.0285C8.9533 6.9375 8.0573 7.3183 7.3405 8.0799C6.6237 8.8415 6.3101 9.7599 6.3997 10.8351L10.1629 69.1647C10.2077 70.2399 10.6333 71.1583 11.4397 71.9199C12.2909 72.6815 13.2317 73.0623 14.2621 73.0623H32.4733L31.4653 62.5119C31.3757 61.4815 31.6669 60.5855 32.3389 59.8239C33.0109 59.0623 33.8621 58.6815 34.8925 58.6815H45.3757C46.4061 58.6815 47.2573 59.0623 47.9293 59.8239C48.6013 60.5855 48.8925 61.4815 48.8029 62.5119L47.7949 73.0623H65.7373C66.8125 73.0623 67.7309 72.6815 68.4925 71.9199C69.2989 71.1583 69.7469 70.2399 69.8365 69.1647L73.5997 10.8351C73.6893 9.7599 73.3757 8.8415 72.6589 8.0799C71.9421 7.3183 71.0461 6.9375 69.9709 6.9375ZM54.8509 29.5839C54.8509 29.1807 54.9853 28.8447 55.2541 28.5759C55.5229 28.3071 55.8365 28.1727 56.1949 28.1727H60.4957C60.8989 28.1727 61.2349 28.3071 61.5037 28.5759C61.7725 28.8447 61.9069 29.1807 61.9069 29.5839V35.5647C61.9069 35.9679 61.7725 36.3039 61.5037 36.5727C61.2349 36.8415 60.8989 36.9759 60.4957 36.9759H56.1949C55.8365 36.9759 55.5229 36.8415 55.2541 36.5727C54.9853 36.3039 54.8509 35.9679 54.8509 35.5647V29.5839ZM54.8509 44.3679C54.8509 44.0095 54.9853 43.6959 55.2541 43.4271C55.5229 43.1583 55.8365 43.0239 56.1949 43.0239H60.4957C60.8989 43.0239 61.2349 43.1583 61.5037 43.4271C61.7725 43.6959 61.9069 44.0095 61.9069 44.3679V50.4159C61.9069 50.7743 61.7725 51.1103 61.5037 51.4239C61.2349 51.6927 60.8989 51.8271 60.4957 51.8271H56.1949C55.8365 51.8271 55.5229 51.6927 55.2541 51.4239C54.9853 51.1103 54.8509 50.7743 54.8509 50.4159V44.3679ZM25.2157 66.2079C25.2157 66.6111 25.0589 66.9471 24.7453 67.2159C24.4765 67.4847 24.1629 67.6191 23.8045 67.6191H19.5037C19.1005 67.6191 18.7645 67.4847 18.4957 67.2159C18.2269 66.9471 18.0925 66.6111 18.0925 66.2079V60.2271C18.0925 59.8239 18.2269 59.4879 18.4957 59.2191C18.7645 58.9503 19.1005 58.8159 19.5037 58.8159H23.8045C24.1629 58.8159 24.4765 58.9503 24.7453 59.2191C25.0589 59.4879 25.2157 59.8239 25.2157 60.2271V66.2079ZM25.2157 50.4159C25.2157 50.7743 25.0589 51.1103 24.7453 51.4239C24.4765 51.6927 24.1629 51.8271 23.8045 51.8271H19.5037C19.1005 51.8271 18.7645 51.6927 18.4957 51.4239C18.2269 51.1103 18.0925 50.7743 18.0925 50.4159V44.3679C18.0925 44.0095 18.2269 43.6959 18.4957 43.4271C18.7645 43.1583 19.1005 43.0239 19.5037 43.0239H23.8045C24.1629 43.0239 24.4765 43.1583 24.7453 43.4271C25.0589 43.6959 25.2157 44.0095 25.2157 44.3679V50.4159ZM25.2157 35.5647C25.2157 35.9679 25.0589 36.3039 24.7453 36.5727C24.4765 36.8415 24.1629 36.9759 23.8045 36.9759H19.5037C19.1005 36.9759 18.7645 36.8415 18.4957 36.5727C18.2269 36.3039 18.0925 35.9679 18.0925 35.5647V29.5839C18.0925 29.1807 18.2269 28.8447 18.4957 28.5759C18.7645 28.3071 19.1005 28.1727 19.5037 28.1727H23.8045C24.1629 28.1727 24.4765 28.3071 24.7453 28.5759C25.0589 28.8447 25.2157 29.1807 25.2157 29.5839V35.5647ZM37.4461 50.4159C37.4461 50.7743 37.3117 51.1103 37.0429 51.4239C36.7741 51.6927 36.4381 51.8271 36.0349 51.8271H31.7341C31.3309 51.8271 30.9949 51.6927 30.7261 51.4239C30.4573 51.1103 30.3229 50.7743 30.3229 50.4159V44.3679C30.3229 44.0095 30.4573 43.6959 30.7261 43.4271C30.9949 43.1583 31.3309 43.0239 31.7341 43.0239H36.0349C36.4381 43.0239 36.7741 43.1583 37.0429 43.4271C37.3117 43.6959 37.4461 44.0095 37.4461 44.3679V50.4159ZM37.4461 35.5647C37.4461 35.9679 37.3117 36.3039 37.0429 36.5727C36.7741 36.8415 36.4381 36.9759 36.0349 36.9759H31.7341C31.3309 36.9759 30.9949 36.8415 30.7261 36.5727C30.4573 36.3039 30.3229 35.9679 30.3229 35.5647V29.5839C30.3229 29.1807 30.4573 28.8447 30.7261 28.5759C30.9949 28.3071 31.3309 28.1727 31.7341 28.1727H36.0349C36.4381 28.1727 36.7741 28.3071 37.0429 28.5759C37.3117 28.8447 37.4461 29.1807 37.4461 29.5839V35.5647ZM41.9485 19.3023V22.9311C41.9485 23.1999 41.8141 23.3343 41.5453 23.3343H38.4541C38.1853 23.3343 38.0509 23.1999 38.0509 22.9311V19.3023C38.0509 19.1679 38.0061 19.0559 37.9165 18.9663C37.8269 18.8767 37.7149 18.8319 37.5805 18.8319H33.9517C33.8173 18.8319 33.7053 18.7871 33.6157 18.6975C33.5261 18.6079 33.4813 18.5183 33.4813 18.4287V15.3375C33.4813 15.2479 33.5261 15.1583 33.6157 15.0687C33.7053 14.9791 33.8173 14.9343 33.9517 14.9343H37.5805C37.7149 14.9343 37.8269 14.8895 37.9165 14.7999C38.0061 14.7103 38.0509 14.5983 38.0509 14.4639V10.8351C38.0509 10.7007 38.0957 10.5887 38.1853 10.4991C38.2749 10.4095 38.3645 10.3647 38.4541 10.3647H41.5453C41.6349 10.3647 41.7245 10.4095 41.8141 10.4991C41.9037 10.5887 41.9485 10.7007 41.9485 10.8351V14.4639C41.9485 14.5983 41.9933 14.7103 42.0829 14.7999C42.1725 14.8895 42.2845 14.9343 42.4189 14.9343H46.0477C46.3613 14.9343 46.5181 15.0687 46.5181 15.3375V18.4287C46.5181 18.5183 46.4733 18.6079 46.3837 18.6975C46.2941 18.7871 46.1821 18.8319 46.0477 18.8319H42.4189C42.2845 18.8319 42.1725 18.8767 42.0829 18.9663C41.9933 19.0559 41.9485 19.1679 41.9485 19.3023ZM49.6765 50.4159C49.6765 50.7743 49.5421 51.1103 49.2733 51.4239C49.0045 51.6927 48.6685 51.8271 48.2653 51.8271H43.9645C43.5613 51.8271 43.2253 51.6927 42.9565 51.4239C42.6877 51.1103 42.5533 50.7743 42.5533 50.4159V44.3679C42.5533 44.0095 42.6877 43.6959 42.9565 43.4271C43.2253 43.1583 43.5613 43.0239 43.9645 43.0239H48.2653C48.6685 43.0239 49.0045 43.1583 49.2733 43.4271C49.5421 43.6959 49.6765 44.0095 49.6765 44.3679V50.4159ZM49.6765 35.5647C49.6765 35.9679 49.5421 36.3039 49.2733 36.5727C49.0045 36.8415 48.6685 36.9759 48.2653 36.9759H43.9645C43.5613 36.9759 43.2253 36.8415 42.9565 36.5727C42.6877 36.3039 42.5533 35.9679 42.5533 35.5647V29.5839C42.5533 29.1807 42.6877 28.8447 42.9565 28.5759C43.2253 28.3071 43.5613 28.1727 43.9645 28.1727H48.2653C48.6685 28.1727 49.0045 28.3071 49.2733 28.5759C49.5421 28.8447 49.6765 29.1807 49.6765 29.5839V35.5647ZM61.9069 66.2079C61.9069 66.6111 61.7725 66.9471 61.5037 67.2159C61.2349 67.4847 60.9213 67.6191 60.5629 67.6191H56.1949C55.8365 67.6191 55.5229 67.4847 55.2541 67.2159C54.9853 66.9471 54.8509 66.6111 54.8509 66.2079V60.2271C54.8509 59.8239 54.9853 59.4879 55.2541 59.2191C55.5229 58.9503 55.8365 58.8159 56.1949 58.8159H60.5629C60.9213 58.8159 61.2349 58.9503 61.5037 59.2191C61.7725 59.4879 61.9069 59.8239 61.9069 60.2271V66.2079Z" fill="#A50014"/>
</g>
</svg>
