<svg width="80" height="80" viewBox="0 0 80 80" fill="none" xmlns="http://www.w3.org/2000/svg">
<g id="Frame 11">
<path id="&#238;&#176;&#176;" d="M55.908 11.1039H46.9704V9.5583C46.9704 8.6623 46.6568 7.9231 46.0296 7.3407C45.4472 6.7135 44.708 6.3999 43.812 6.3999H36.5544C35.6584 6.3999 34.8968 6.7135 34.2696 7.3407C33.6424 7.9679 33.3288 8.7071 33.3288 9.5583V11.1039H24.3912C23.0472 11.1039 21.8152 11.4399 20.6952 12.1119C19.5752 12.7391 18.6792 13.6127 18.0072 14.7327C17.38 15.8527 17.0664 17.0847 17.0664 18.4287V66.2751C17.0664 67.6191 17.38 68.8511 18.0072 69.9711C18.6792 71.0911 19.5752 71.9647 20.6952 72.5919C21.8152 73.2639 23.0472 73.5999 24.3912 73.5999H55.908C57.252 73.5999 58.484 73.2639 59.604 72.5919C60.724 71.9647 61.62 71.0911 62.292 69.9711C62.964 68.8511 63.3 67.6191 63.3 66.2751V18.4287C63.3 17.0847 62.964 15.8527 62.292 14.7327C61.62 13.6127 60.724 12.7391 59.604 12.1119C58.484 11.4399 57.252 11.1039 55.908 11.1039ZM40.1832 7.8111C40.6312 7.8111 41.012 7.9679 41.3256 8.2815C41.6392 8.5951 41.796 8.9759 41.796 9.4239C41.796 9.8719 41.6392 10.2527 41.3256 10.5663C41.012 10.8799 40.6312 11.0367 40.1832 11.0367C39.7352 11.0367 39.3544 10.8799 39.0408 10.5663C38.7272 10.2527 38.5704 9.8719 38.5704 9.4239C38.5704 8.9759 38.7272 8.5951 39.0408 8.2815C39.3544 7.9679 39.7352 7.8111 40.1832 7.8111ZM31.5816 15.6063H48.7848V22.3263H31.5816V15.6063ZM32.9256 33.5487L32.1864 34.4223C32.052 34.0639 31.828 33.7951 31.5144 33.6159C31.2456 33.4367 30.932 33.3471 30.5736 33.3471H25.7352C25.2424 33.3471 24.8168 33.5263 24.4584 33.8847C24.1448 34.1983 23.988 34.5791 23.988 35.0271V40.4031C23.988 40.8511 24.1672 41.2543 24.5256 41.6127C24.884 41.9711 25.2872 42.1503 25.7352 42.1503H30.5736C31.0664 42.1503 31.4696 41.9711 31.7832 41.6127C32.1416 41.2543 32.3208 40.8511 32.3208 40.4031V37.5135L34.5384 34.8927C34.7176 34.6687 34.7848 34.4223 34.74 34.1535C34.74 33.8399 34.628 33.5935 34.404 33.4143C34.18 33.2351 33.9112 33.1679 33.5976 33.2127C33.3288 33.2127 33.1048 33.3247 32.9256 33.5487ZM31.1784 40.4031C31.1784 40.5823 31.1112 40.7391 30.9768 40.8735C30.8872 40.9631 30.7752 41.0079 30.6408 41.0079H25.7352C25.556 41.0079 25.3992 40.9631 25.2648 40.8735C25.1752 40.7391 25.1304 40.5823 25.1304 40.4031V35.0271C25.1304 34.8479 25.1752 34.7135 25.2648 34.6239C25.3992 34.5343 25.556 34.4895 25.7352 34.4895H30.6408C30.7752 34.4895 30.8872 34.5343 30.9768 34.6239C31.1112 34.7135 31.1784 34.8479 31.1784 35.0271V35.6319L29.7672 37.3119C29.588 37.5359 29.3416 37.6703 29.028 37.7151C28.7592 37.7151 28.5128 37.6031 28.2888 37.3791L27.4152 36.5727C27.236 36.3935 26.9896 36.3039 26.676 36.3039C26.4072 36.3039 26.1608 36.4159 25.9368 36.6399C25.7576 36.8191 25.668 37.0655 25.668 37.3791C25.668 37.6479 25.78 37.8943 26.004 38.1183L28.4904 40.4031C28.6696 40.5823 28.8936 40.6719 29.1624 40.6719H29.2296C29.4984 40.6719 29.7448 40.5599 29.9688 40.3359L31.1784 38.8575V40.4031ZM32.9256 44.9727L32.1192 45.9135C31.9848 45.6447 31.7832 45.4431 31.5144 45.3087C31.2456 45.1295 30.9544 45.0399 30.6408 45.0399H25.7352C25.2872 45.0399 24.884 45.1967 24.5256 45.5103C24.212 45.8239 24.0552 46.2271 24.0552 46.7199V52.0959C24.0552 52.5439 24.212 52.9471 24.5256 53.3055C24.884 53.6191 25.2872 53.7759 25.7352 53.7759H30.6408C31.0888 53.7759 31.4696 53.6191 31.7832 53.3055C32.1416 52.9471 32.3208 52.5439 32.3208 52.0959V48.9375L34.5384 46.3167C34.7176 46.0927 34.7848 45.8463 34.74 45.5775C34.74 45.2639 34.628 45.0175 34.404 44.8383C34.18 44.6591 33.9336 44.5919 33.6648 44.6367C33.396 44.6367 33.1496 44.7487 32.9256 44.9727ZM31.1784 52.0959C31.1784 52.2751 31.1112 52.4095 30.9768 52.4991C30.8872 52.5887 30.7752 52.6335 30.6408 52.6335H25.7352C25.556 52.6335 25.3992 52.5887 25.2648 52.4991C25.1752 52.4095 25.1304 52.2751 25.1304 52.0959V46.7199C25.1304 46.5407 25.1752 46.4063 25.2648 46.3167C25.3992 46.1823 25.556 46.1151 25.7352 46.1151H30.6408C30.7752 46.1151 30.8872 46.1823 30.9768 46.3167C31.1112 46.4063 31.1784 46.5407 31.1784 46.7199V47.0559L29.7672 48.7359C29.588 48.9599 29.3416 49.0943 29.028 49.1391C28.7592 49.1391 28.5128 49.0271 28.2888 48.8031L27.4152 47.9967C27.236 47.8175 26.9896 47.7279 26.676 47.7279C26.4072 47.7279 26.1608 47.8399 25.9368 48.0639C25.7576 48.2431 25.668 48.4895 25.668 48.8031C25.668 49.0719 25.78 49.3183 26.004 49.5423L28.4904 51.8271C28.6696 52.0063 28.8936 52.0959 29.1624 52.0959H29.2296C29.4984 52.0959 29.7448 51.9839 29.9688 51.7599L31.1784 50.3487V52.0959ZM32.9256 56.4639L32.052 57.4719C31.7832 56.8895 31.3128 56.5983 30.6408 56.5983H25.7352C25.2872 56.5983 24.884 56.7551 24.5256 57.0687C24.212 57.3823 24.0552 57.7855 24.0552 58.2783V63.6543C24.0552 64.1471 24.212 64.5503 24.5256 64.8639C24.884 65.2223 25.2872 65.4015 25.7352 65.4015H30.6408C31.0888 65.4015 31.4696 65.2223 31.7832 64.8639C32.1416 64.5055 32.3208 64.1023 32.3208 63.6543V60.4287L34.5384 57.8079C34.7176 57.5839 34.7848 57.3375 34.74 57.0687C34.74 56.7551 34.628 56.5087 34.404 56.3295C34.18 56.1503 33.9336 56.0831 33.6648 56.1279C33.396 56.1279 33.1496 56.2399 32.9256 56.4639ZM31.1784 63.6543C31.1784 63.8335 31.1112 63.9679 30.9768 64.0575C30.8872 64.1919 30.7752 64.2591 30.6408 64.2591H25.7352C25.556 64.2591 25.3992 64.1919 25.2648 64.0575C25.1752 63.9679 25.1304 63.8335 25.1304 63.6543V58.2783C25.1304 58.0991 25.1752 57.9647 25.2648 57.8751C25.3992 57.7855 25.556 57.7407 25.7352 57.7407H30.6408C30.7752 57.7407 30.8872 57.7855 30.9768 57.8751C31.1112 57.9647 31.1784 58.0991 31.1784 58.2783V58.5471L29.7672 60.2271C29.5432 60.4511 29.2968 60.5631 29.028 60.5631C28.7592 60.5631 28.5128 60.4735 28.2888 60.2943L27.4152 59.4879C27.236 59.3087 26.9896 59.2191 26.676 59.2191C26.4072 59.2191 26.1608 59.3311 25.9368 59.5551C25.7576 59.7343 25.668 59.9807 25.668 60.2943C25.668 60.5631 25.78 60.8095 26.004 61.0335L28.4904 63.3183C28.6696 63.4975 28.8936 63.5871 29.1624 63.5871H29.2296C29.5432 63.5871 29.7896 63.4527 29.9688 63.1839L31.1784 61.7727V63.6543ZM55.6392 36.9759H38.6376C38.324 36.9759 38.0552 37.0879 37.8312 37.3119C37.652 37.4911 37.5624 37.7375 37.5624 38.0511C37.5624 38.3647 37.652 38.6335 37.8312 38.8575C38.0552 39.0367 38.324 39.1263 38.6376 39.1263H55.6392C55.908 39.1263 56.132 39.0367 56.3112 38.8575C56.5352 38.6335 56.6472 38.3647 56.6472 38.0511C56.6472 37.7375 56.5352 37.4911 56.3112 37.3119C56.132 37.0879 55.908 36.9759 55.6392 36.9759ZM55.6392 47.3247H38.6376C38.324 47.3247 38.0552 47.4367 37.8312 47.6607C37.652 47.8399 37.5624 48.0863 37.5624 48.3999C37.5624 48.6687 37.652 48.9151 37.8312 49.1391C38.0552 49.3183 38.324 49.4079 38.6376 49.4079H55.6392C55.908 49.4079 56.132 49.3183 56.3112 49.1391C56.5352 48.9151 56.6472 48.6687 56.6472 48.3999C56.6472 48.0863 56.5352 47.8399 56.3112 47.6607C56.132 47.4367 55.908 47.3247 55.6392 47.3247ZM55.6392 57.6063H38.6376C38.324 57.6063 38.0552 57.7183 37.8312 57.9423C37.652 58.1215 37.5624 58.3455 37.5624 58.6143C37.5624 58.8831 37.652 59.1295 37.8312 59.3535C38.0552 59.5775 38.324 59.6895 38.6376 59.6895H55.6392C55.908 59.6895 56.132 59.5999 56.3112 59.4207C56.5352 59.1967 56.6472 58.9503 56.6472 58.6815C56.6472 58.3679 56.5352 58.1215 56.3112 57.9423C56.132 57.7183 55.908 57.6063 55.6392 57.6063Z" fill="#A50014"/>
<path id="&#238;&#176;&#176;_2" d="M32.4044 33.5489L31.6652 34.4225C31.5308 34.0641 31.3068 33.7953 30.9932 33.6161C30.7244 33.4369 30.4108 33.3473 30.0524 33.3473H25.214C24.7212 33.3473 24.2956 33.5265 23.9372 33.8849C23.6236 34.1985 23.4668 34.5793 23.4668 35.0273V40.4033C23.4668 40.8513 23.646 41.2545 24.0044 41.6129C24.3628 41.9713 24.766 42.1505 25.214 42.1505H30.0524C30.5452 42.1505 30.9484 41.9713 31.262 41.6129C31.6204 41.2545 31.7996 40.8513 31.7996 40.4033V37.5137L34.0172 34.8929C34.1964 34.6689 34.2636 34.4225 34.2188 34.1537C34.2188 33.8401 34.1068 33.5937 33.8828 33.4145C33.6588 33.2353 33.39 33.1681 33.0764 33.2129C32.8076 33.2129 32.5836 33.3249 32.4044 33.5489ZM30.6572 40.4033C30.6572 40.5825 30.59 40.7393 30.4556 40.8737C30.366 40.9633 30.254 41.0081 30.1196 41.0081H25.214C25.0348 41.0081 24.878 40.9633 24.7436 40.8737C24.654 40.7393 24.6092 40.5825 24.6092 40.4033V35.0273C24.6092 34.8481 24.654 34.7137 24.7436 34.6241C24.878 34.5345 25.0348 34.4897 25.214 34.4897H30.1196C30.254 34.4897 30.366 34.5345 30.4556 34.6241C30.59 34.7137 30.6572 34.8481 30.6572 35.0273V35.6321L29.246 37.3121C29.0668 37.5361 28.8204 37.6705 28.5068 37.7153C28.238 37.7153 27.9916 37.6033 27.7676 37.3793L26.894 36.5729C26.7148 36.3937 26.4684 36.3041 26.1548 36.3041C25.886 36.3041 25.6396 36.4161 25.4156 36.6401C25.2364 36.8193 25.1468 37.0657 25.1468 37.3793C25.1468 37.6481 25.2588 37.8945 25.4828 38.1185L27.9692 40.4033C28.1484 40.5825 28.3724 40.6721 28.6412 40.6721H28.7084C28.9772 40.6721 29.2236 40.5601 29.4476 40.3361L30.6572 38.8577V40.4033ZM32.4044 44.9729L31.598 45.9137C31.4636 45.6449 31.262 45.4433 30.9932 45.3089C30.7244 45.1297 30.4332 45.0401 30.1196 45.0401H25.214C24.766 45.0401 24.3628 45.1969 24.0044 45.5105C23.6908 45.8241 23.534 46.2273 23.534 46.7201V52.0961C23.534 52.5441 23.6908 52.9473 24.0044 53.3057C24.3628 53.6193 24.766 53.7761 25.214 53.7761H30.1196C30.5676 53.7761 30.9484 53.6193 31.262 53.3057C31.6204 52.9473 31.7996 52.5441 31.7996 52.0961V48.9377L34.0172 46.3169C34.1964 46.0929 34.2636 45.8465 34.2188 45.5777C34.2188 45.2641 34.1068 45.0177 33.8828 44.8385C33.6588 44.6593 33.4124 44.5921 33.1436 44.6369C32.8748 44.6369 32.6284 44.7489 32.4044 44.9729ZM30.6572 52.0961C30.6572 52.2753 30.59 52.4097 30.4556 52.4993C30.366 52.5889 30.254 52.6337 30.1196 52.6337H25.214C25.0348 52.6337 24.878 52.5889 24.7436 52.4993C24.654 52.4097 24.6092 52.2753 24.6092 52.0961V46.7201C24.6092 46.5409 24.654 46.4065 24.7436 46.3169C24.878 46.1825 25.0348 46.1153 25.214 46.1153H30.1196C30.254 46.1153 30.366 46.1825 30.4556 46.3169C30.59 46.4065 30.6572 46.5409 30.6572 46.7201V47.0561L29.246 48.7361C29.0668 48.9601 28.8204 49.0945 28.5068 49.1393C28.238 49.1393 27.9916 49.0273 27.7676 48.8033L26.894 47.9969C26.7148 47.8177 26.4684 47.7281 26.1548 47.7281C25.886 47.7281 25.6396 47.8401 25.4156 48.0641C25.2364 48.2433 25.1468 48.4897 25.1468 48.8033C25.1468 49.0721 25.2588 49.3185 25.4828 49.5425L27.9692 51.8273C28.1484 52.0065 28.3724 52.0961 28.6412 52.0961H28.7084C28.9772 52.0961 29.2236 51.9841 29.4476 51.7601L30.6572 50.3489V52.0961ZM32.4044 56.4641L31.5308 57.4721C31.262 56.8897 30.7916 56.5985 30.1196 56.5985H25.214C24.766 56.5985 24.3628 56.7553 24.0044 57.0689C23.6908 57.3825 23.534 57.7857 23.534 58.2785V63.6545C23.534 64.1473 23.6908 64.5505 24.0044 64.8641C24.3628 65.2225 24.766 65.4017 25.214 65.4017H30.1196C30.5676 65.4017 30.9484 65.2225 31.262 64.8641C31.6204 64.5057 31.7996 64.1025 31.7996 63.6545V60.4289L34.0172 57.8081C34.1964 57.5841 34.2636 57.3377 34.2188 57.0689C34.2188 56.7553 34.1068 56.5089 33.8828 56.3297C33.6588 56.1505 33.4124 56.0833 33.1436 56.1281C32.8748 56.1281 32.6284 56.2401 32.4044 56.4641ZM30.6572 63.6545C30.6572 63.8337 30.59 63.9681 30.4556 64.0577C30.366 64.1921 30.254 64.2593 30.1196 64.2593H25.214C25.0348 64.2593 24.878 64.1921 24.7436 64.0577C24.654 63.9681 24.6092 63.8337 24.6092 63.6545V58.2785C24.6092 58.0993 24.654 57.9649 24.7436 57.8753C24.878 57.7857 25.0348 57.7409 25.214 57.7409H30.1196C30.254 57.7409 30.366 57.7857 30.4556 57.8753C30.59 57.9649 30.6572 58.0993 30.6572 58.2785V58.5473L29.246 60.2273C29.022 60.4513 28.7756 60.5633 28.5068 60.5633C28.238 60.5633 27.9916 60.4737 27.7676 60.2945L26.894 59.4881C26.7148 59.3089 26.4684 59.2193 26.1548 59.2193C25.886 59.2193 25.6396 59.3313 25.4156 59.5553C25.2364 59.7345 25.1468 59.9809 25.1468 60.2945C25.1468 60.5633 25.2588 60.8097 25.4828 61.0337L27.9692 63.3185C28.1484 63.4977 28.3724 63.5873 28.6412 63.5873H28.7084C29.022 63.5873 29.2684 63.4529 29.4476 63.1841L30.6572 61.7729V63.6545ZM55.118 36.9761H38.1164C37.8028 36.9761 37.534 37.0881 37.31 37.3121C37.1308 37.4913 37.0412 37.7377 37.0412 38.0513C37.0412 38.3649 37.1308 38.6337 37.31 38.8577C37.534 39.0369 37.8028 39.1265 38.1164 39.1265H55.118C55.3868 39.1265 55.6108 39.0369 55.79 38.8577C56.014 38.6337 56.126 38.3649 56.126 38.0513C56.126 37.7377 56.014 37.4913 55.79 37.3121C55.6108 37.0881 55.3868 36.9761 55.118 36.9761ZM55.118 47.3249H38.1164C37.8028 47.3249 37.534 47.4369 37.31 47.6609C37.1308 47.8401 37.0412 48.0865 37.0412 48.4001C37.0412 48.6689 37.1308 48.9153 37.31 49.1393C37.534 49.3185 37.8028 49.4081 38.1164 49.4081H55.118C55.3868 49.4081 55.6108 49.3185 55.79 49.1393C56.014 48.9153 56.126 48.6689 56.126 48.4001C56.126 48.0865 56.014 47.8401 55.79 47.6609C55.6108 47.4369 55.3868 47.3249 55.118 47.3249ZM55.118 57.6065H38.1164C37.8028 57.6065 37.534 57.7185 37.31 57.9425C37.1308 58.1217 37.0412 58.3457 37.0412 58.6145C37.0412 58.8833 37.1308 59.1297 37.31 59.3537C37.534 59.5777 37.8028 59.6897 38.1164 59.6897H55.118C55.3868 59.6897 55.6108 59.6001 55.79 59.4209C56.014 59.1969 56.126 58.9505 56.126 58.6817C56.126 58.3681 56.014 58.1217 55.79 57.9425C55.6108 57.7185 55.3868 57.6065 55.118 57.6065Z" fill="white"/>
</g>
</svg>
