<svg width="80" height="80" viewBox="0 0 80 80" fill="none" xmlns="http://www.w3.org/2000/svg">
<g id="Frame 9">
<path id="&#238;&#176;&#153;" d="M66.4 70.6528C66.3104 69.7568 66.1984 68.4352 66.064 66.688C65.9744 64.9856 65.8848 63.7088 65.7952 62.8576C65.392 58.512 64.6976 54.704 63.712 51.4336C62.9952 49.104 61.8528 47.4912 60.2848 46.5952C59.5232 46.1024 58.6048 45.6544 57.5296 45.2512C56.8576 45.0272 55.872 44.7136 54.5728 44.3104C54.304 44.2208 54.1472 44.2432 54.1024 44.3776C54.0576 44.4672 54.0576 44.624 54.1024 44.848V44.9152C54.2368 46.528 54.1248 48.208 53.7664 49.9552C53.632 50.3584 53.8112 50.6944 54.304 50.9632C56.2752 52.0832 57.328 53.7408 57.4624 55.936C57.5072 56.8768 57.4176 58.288 57.1936 60.1696C57.0592 61.3344 56.9696 62.208 56.9248 62.7904C56.8352 64.6272 56.544 66.1504 56.0512 67.36C55.2448 69.1072 53.9008 69.8016 52.0192 69.4432C51.2576 69.3088 50.9216 68.8832 51.0112 68.1664C51.1008 67.4496 51.5488 67.1584 52.3552 67.2928C52.7584 67.3824 53.0944 67.3376 53.3632 67.1584C53.632 67.024 53.8784 66.7552 54.1024 66.352C54.3712 65.8144 54.5056 65.2768 54.5056 64.7392L55.312 57.0112C55.3568 55.8464 55.088 54.8608 54.5056 54.0544C53.968 53.2032 53.1616 52.6656 52.0864 52.4416C51.056 52.1728 50.1152 52.2848 49.264 52.7776C48.4128 53.2256 47.7632 53.9872 47.3152 55.0624C47.0464 55.7344 46.6656 56.7648 46.1728 58.1536L45.3664 60.3712C44.9184 61.4912 44.6048 62.4992 44.4256 63.3952C44.2912 64.0672 44.3136 64.56 44.4928 64.8736C44.672 65.232 45.0752 65.5456 45.7024 65.8144C46.3744 66.0832 46.5984 66.5088 46.3744 67.0912C46.1952 67.7184 45.7472 67.9872 45.0304 67.8976C44.1344 67.6736 43.4176 67.248 42.88 66.6208C42.3872 66.0384 42.1408 65.2768 42.1408 64.336C42.1408 63.6192 42.2528 62.8576 42.4768 62.0512C42.88 60.6176 43.6192 58.5344 44.6944 55.8016L45.3664 53.9872C45.8592 52.8224 46.576 51.904 47.5168 51.232C48.4576 50.56 49.5552 50.2016 50.8096 50.1568C51.0784 50.112 51.28 50.0448 51.4144 49.9552C51.5488 49.8656 51.6384 49.7088 51.6832 49.4848C51.952 47.8272 52.0192 46.192 51.8848 44.5792C51.84 44.176 51.728 43.8624 51.5488 43.6384C51.3696 43.4144 51.0784 43.28 50.6752 43.2352C50.0928 43.1008 49.4432 42.8992 48.7264 42.6304C48.4128 42.496 48.1664 42.4736 47.9872 42.5632C47.8528 42.608 47.7408 42.8096 47.6512 43.168C47.024 45.3632 46.016 47.8048 44.6272 50.4928C44.3136 51.0752 43.776 51.9936 43.0144 53.248L42.544 54.0544C42.3648 52.9344 42.096 51.4336 41.7376 49.552C41.6032 48.8352 41.648 48.2304 41.872 47.7376L42.0064 47.536C42.1408 47.3568 42.208 47.2 42.208 47.0656C42.2528 46.8864 42.208 46.7296 42.0736 46.5952C41.8048 46.3264 41.3792 45.9904 40.7968 45.5872L39.9904 44.9824C39.9904 44.9376 39.968 44.9376 39.9232 44.9824C39.8784 44.9824 39.856 45.0048 39.856 45.0496L39.3856 45.4528C38.624 45.9904 38.1088 46.4384 37.84 46.7968C37.7056 46.976 37.7728 47.2672 38.0416 47.6704C38.176 47.9392 38.2656 48.1184 38.3104 48.208L38.3776 48.544L37.504 53.92C37.28 53.696 37.1456 53.5392 37.1008 53.4496C35.3088 50.5376 33.8752 47.5136 32.8 44.3776C32.7552 44.2432 32.688 44.0192 32.5984 43.7056C32.5536 43.3472 32.4864 43.0784 32.3968 42.8992C32.3072 42.6752 32.1504 42.5408 31.9264 42.496C31.7472 42.4064 31.344 42.496 30.7168 42.7648L30.0448 43.0336C29.5968 43.1232 29.328 43.3248 29.2384 43.6384L28.9024 44.512C28.6784 45.1392 28.5216 45.632 28.432 45.9904C27.2224 51.0976 27.4464 56.2048 29.104 61.312C29.2384 61.7152 29.3952 62.0288 29.5744 62.2528C29.7984 62.432 30.112 62.5664 30.5152 62.656C31.3216 62.8352 31.9264 63.3056 32.3296 64.0672C32.7328 64.8288 32.7776 65.6128 32.464 66.4192C32.1952 67.2704 31.6576 67.8528 30.8512 68.1664C30.0896 68.5248 29.3056 68.5248 28.4992 68.1664C27.6928 67.808 27.1552 67.2032 26.8864 66.352C26.6176 65.5008 26.7072 64.7168 27.1552 64C27.2896 63.776 27.3568 63.552 27.3568 63.328C27.4016 63.104 27.3792 62.8352 27.2896 62.5216C25.5424 57.6832 25.072 52.688 25.8784 47.536C25.968 47.0432 26.1248 46.3488 26.3488 45.4528L26.752 43.9744L25.8112 44.2432C24.4672 44.6016 23.4816 44.8928 22.8544 45.1168C21.7792 45.52 20.8608 45.9456 20.0992 46.3936C18.5312 47.3344 17.4336 48.544 16.8064 50.0224C16.0896 51.7696 15.552 53.808 15.1936 56.1376C14.8352 57.9296 14.544 59.9456 14.32 62.1856C14.1856 63.5296 14.0064 65.5456 13.7824 68.2336L13.5808 70.7872C13.536 71.9968 14.0512 72.9376 15.1264 73.6096H64.7872C65.9968 73.0272 66.5344 72.0416 66.4 70.6528ZM28.8352 29.2576C29.1936 29.3472 29.4848 29.616 29.7088 30.064C30.8736 32.8864 32.2624 35.104 33.8752 36.7168C35.5328 38.464 37.3472 39.4272 39.3184 39.6064C41.6928 39.8752 43.9328 38.9568 46.0384 36.8512C47.696 35.1936 49.1296 32.9536 50.3392 30.1312L50.4064 29.9296C50.4512 29.7504 50.5184 29.616 50.608 29.5264C50.6976 29.4368 50.832 29.3696 51.0112 29.3248C51.5936 29.28 52.1312 28.9888 52.624 28.4512C53.1168 27.9136 53.4752 27.264 53.6992 26.5024C53.968 25.7408 54.0576 25.0688 53.968 24.4864C53.8784 23.8592 53.6096 23.5232 53.1616 23.4784C52.848 23.4784 52.6688 23.4112 52.624 23.2768C52.5792 23.1424 52.6016 22.9408 52.6912 22.672C53.0048 21.1488 53.2064 19.6928 53.296 18.304C53.296 16.8256 53.184 15.6384 52.96 14.7424C52.4224 12.9056 51.4816 11.6288 50.1376 10.912C49.6448 10.6432 49.264 10.3744 48.9952 10.1056C48.6368 9.79198 48.3904 9.41118 48.256 8.96318C48.1664 8.69438 47.8976 8.38078 47.4496 8.02238C46.5088 7.21598 45.1872 6.70078 43.4848 6.47678C39.0496 6.07358 35.0848 7.08158 31.5904 9.50078C28.9024 11.3824 27.4016 13.7568 27.088 16.624C26.864 18.7296 26.9536 20.7456 27.3568 22.672V22.8064C27.4464 23.0752 27.4464 23.2768 27.3568 23.4112C27.312 23.5008 27.1328 23.5456 26.8192 23.5456C26.5504 23.5456 26.3264 23.7472 26.1472 24.1504C25.8336 25.0464 25.968 26.0768 26.5504 27.2416C27.1776 28.3616 27.9392 29.0336 28.8352 29.2576Z" fill="#A50014"/>
</g>
</svg>
