<svg width="80" height="80" viewBox="0 0 80 80" fill="none" xmlns="http://www.w3.org/2000/svg">
<g id="Frame 13">
<path id="&#238;&#182;&#132;" d="M17.0381 54.4581C17.1277 54.2341 17.2397 53.8981 17.3741 53.4501C17.9565 51.6133 18.4045 50.2469 18.7181 49.3509C18.8525 49.0373 18.8749 48.7909 18.7853 48.6117C18.7405 48.3877 18.5613 48.1637 18.2477 47.9397C14.0365 44.8485 11.5725 41.1301 10.8557 36.7845C9.87006 30.6917 11.7965 25.5397 16.6349 21.3285C19.5469 18.7749 22.9965 17.0725 26.9837 16.2213C30.7917 15.4149 34.5773 15.5045 38.3405 16.4901C42.2829 17.5653 45.6429 19.4469 48.4205 22.1349C50.7949 24.4197 52.3629 27.0853 53.1245 30.1317C53.2141 30.5349 53.2141 30.8037 53.1245 30.9381C53.0349 31.0277 52.7885 31.0725 52.3853 31.0725C46.2925 30.8037 41.2525 32.5957 37.2653 36.4485C32.8301 40.6597 31.3741 45.6101 32.8973 51.2997C33.0317 51.7029 33.0317 51.9717 32.8973 52.1061C32.8077 52.1957 32.5613 52.2405 32.1581 52.2405C30.7693 52.1957 29.6493 52.1285 28.7981 52.0389C27.5885 51.8597 26.4909 51.6133 25.5053 51.2997C24.6093 51.0309 23.7581 51.1429 22.9517 51.6357C22.1453 52.0837 20.9133 52.7333 19.2557 53.5845L17.6429 54.4581C17.4637 54.5477 17.2621 54.5477 17.0381 54.4581ZM27.5885 27.5781C27.6333 26.8165 27.3645 26.1445 26.7821 25.5621C26.1997 24.9349 25.5053 24.6213 24.6989 24.6213C23.8925 24.5765 23.1981 24.8453 22.6157 25.4277C22.0333 26.0101 21.7197 26.7045 21.6749 27.5109C21.6749 28.2725 21.9661 28.9669 22.5485 29.5941C23.1309 30.1765 23.8253 30.4901 24.6317 30.5349C25.4381 30.5797 26.1325 30.3109 26.7149 29.7285C27.2973 29.1461 27.5885 28.4293 27.5885 27.5781ZM42.3725 27.6453C42.4173 26.8389 42.1485 26.1445 41.5661 25.5621C40.9837 24.9349 40.2893 24.6213 39.4829 24.6213C38.6765 24.5765 37.9821 24.8453 37.3997 25.4277C36.8173 25.9653 36.5037 26.6373 36.4589 27.4437C36.4141 28.2501 36.6605 28.9669 37.1981 29.5941C37.7805 30.1765 38.4749 30.4901 39.2813 30.5349C40.0877 30.5797 40.7821 30.3333 41.3645 29.7957C41.9917 29.2133 42.3277 28.4965 42.3725 27.6453ZM52.3853 32.0805C55.0733 32.1701 57.5597 32.7301 59.8445 33.7605C62.3981 34.9253 64.5933 36.6277 66.4301 38.8677C67.9085 40.7045 68.8269 42.7653 69.1853 45.0501C69.5885 47.3349 69.4093 49.5749 68.6477 51.7701C67.8861 53.9653 66.6317 55.8693 64.8845 57.4821L63.9437 58.3557C63.4061 58.7589 63.0701 59.0725 62.9357 59.2965C62.8013 59.4757 62.7341 59.6997 62.7341 59.9685C62.7789 60.1925 62.8909 60.6181 63.0701 61.2453C63.1597 61.6485 63.3389 62.2085 63.6077 62.9253L63.8093 63.3957C63.8989 63.7989 63.8541 64.0901 63.6749 64.2693C63.5405 64.3589 63.3837 64.3365 63.2045 64.2021L61.5917 63.3285C60.5613 62.7909 59.7997 62.3653 59.3069 62.0517C58.9485 61.8277 58.5901 61.7157 58.2317 61.7157C57.8733 61.6709 57.4477 61.7157 56.9549 61.8501C50.1901 63.5525 44.2317 62.4325 39.0797 58.4901C36.6157 56.6085 34.9357 54.2565 34.0397 51.4341C33.1437 48.7461 33.1213 46.0357 33.9725 43.3029C34.8685 40.5253 36.5485 38.1733 39.0125 36.2469C40.8493 34.8581 42.8205 33.8277 44.9261 33.1557C47.0765 32.4389 49.5629 32.0805 52.3853 32.0805ZM45.8669 40.0773C45.2845 40.0773 44.7469 40.3237 44.2541 40.8165C43.8061 41.2645 43.5821 41.8021 43.5821 42.4293C43.5821 43.0565 43.8285 43.6165 44.3213 44.1093C44.8141 44.6021 45.3741 44.8485 46.0013 44.8485C46.6285 44.8037 47.1661 44.5573 47.6141 44.1093C48.0621 43.6165 48.2861 43.0565 48.2861 42.4293C48.2861 41.8021 48.0397 41.2645 47.5469 40.8165C47.0989 40.3237 46.5389 40.0773 45.8669 40.0773ZM60.1133 42.4293C60.1133 41.8021 59.8669 41.2645 59.3741 40.8165C58.9261 40.3237 58.3661 40.0997 57.6941 40.1445C57.0669 40.1445 56.5293 40.3909 56.0813 40.8837C55.6333 41.3317 55.4093 41.8693 55.4093 42.4965C55.4093 43.1237 55.6333 43.6837 56.0813 44.1765C56.5741 44.6245 57.1341 44.8485 57.7613 44.8485C58.3885 44.8485 58.9261 44.6021 59.3741 44.1093C59.8669 43.6165 60.1133 43.0565 60.1133 42.4293Z" fill="#A50014"/>
</g>
</svg>
