<svg width="67" height="60" viewBox="0 0 67 60" fill="none" xmlns="http://www.w3.org/2000/svg">
<g id="c5e186563f681ad09f025fc2b9ffc3ca 1" clip-path="url(#clip0_2100_2746)">
<path id="Vector" d="M66.6667 60H0V53.3333H3.33333V3.33333C3.33333 2.44928 3.68452 1.60143 4.30964 0.976311C4.93477 0.351189 5.78261 0 6.66667 0L53.3333 0C54.2174 0 55.0652 0.351189 55.6903 0.976311C56.3155 1.60143 56.6667 2.44928 56.6667 3.33333V20H63.3333V53.3333H66.6667V60ZM50 53.3333H56.6667V26.6667H36.6667V53.3333H43.3333V33.3333H50V53.3333ZM50 20V6.66667H10V53.3333H30V20H50ZM16.6667 26.6667H23.3333V33.3333H16.6667V26.6667ZM16.6667 40H23.3333V46.6667H16.6667V40ZM16.6667 13.3333H23.3333V20H16.6667V13.3333Z" fill="#356BB7"/>
</g>
<defs>
<clipPath id="clip0_2100_2746">
<rect width="66.6667" height="60" fill="white"/>
</clipPath>
</defs>
</svg>
