<svg width="80" height="80" viewBox="0 0 80 80" fill="none" xmlns="http://www.w3.org/2000/svg">
<path d="M28.2827 25.1497C28.3723 25.3289 28.5067 25.5977 28.6859 25.9561C29.0891 26.7625 29.3131 27.3897 29.3579 27.8377C29.8955 30.4809 31.0827 32.8329 32.9195 34.8937C33.8603 35.8793 34.0843 37.1561 33.5915 38.7241C33.4123 39.3065 33.3675 39.8217 33.4571 40.2697C33.5467 40.6729 33.7707 41.0985 34.1291 41.5465L34.3307 41.8153C34.9579 42.4873 35.4507 42.9801 35.8091 43.2937C36.3467 43.8313 36.9067 44.2569 37.4891 44.5705C38.2955 45.0185 39.2139 45.1753 40.2443 45.0409C41.2747 44.9065 42.2379 44.5033 43.1339 43.8313C44.3435 42.8457 45.5307 41.4569 46.6955 39.6649C46.8299 39.4857 46.8523 39.2617 46.7627 38.9929L46.5611 37.9849C46.2923 36.8201 46.6059 35.7225 47.5019 34.6921C49.2491 32.7657 50.3915 30.4585 50.9291 27.7705C51.0187 27.2777 51.3099 26.6281 51.8027 25.8217L52.1387 25.2169V26.2249C51.8699 27.7481 51.8027 29.3833 51.9371 31.1305C52.0267 32.5193 52.2507 34.1769 52.6091 36.1033C52.7883 37.1785 53.1915 38.4777 53.8187 40.0009C53.9531 40.2697 54.1323 40.4713 54.3563 40.6057C54.4907 40.6505 54.7147 40.7177 55.0283 40.8073L55.4315 40.9417C57.8059 41.9273 59.8219 42.9129 61.4795 43.8985C62.2859 44.3913 62.9803 45.0409 63.5627 45.8473C64.0107 46.5193 64.4139 47.3929 64.7723 48.4681C65.8923 51.8729 66.6763 54.7849 67.1243 57.2041C67.7963 60.3401 68.0203 63.6329 67.7963 67.0825C67.7515 68.3817 67.0123 69.3001 65.5787 69.8377C63.1147 70.7785 60.1579 71.6297 56.7083 72.3913L51.3995 73.3321C50.5035 73.5113 49.1595 73.6009 47.3675 73.6009H43.8731C40.7371 73.5561 38.3851 73.5561 36.8171 73.6009C33.6363 73.6457 30.2987 73.3545 26.8043 72.7273C22.6379 71.9209 19.2555 71.0697 16.6571 70.1737C15.6715 69.9049 14.7531 69.5689 13.9019 69.1657C13.2747 68.8969 12.8267 68.4489 12.5579 67.8217C12.3787 67.4185 12.2443 66.8137 12.1547 66.0073C12.0651 64.9769 12.1547 63.4537 12.4235 61.4377L12.5579 60.1609C12.8267 57.5625 13.2971 54.9865 13.9691 52.4329C14.6859 49.5657 15.5595 47.2585 16.5899 45.5113C17.0827 44.7497 17.7547 44.0777 18.6059 43.4953C19.2779 43.0473 20.1291 42.6441 21.1595 42.2857C22.1899 41.8825 23.7355 41.3225 25.7963 40.6057C26.1547 40.4713 26.4011 40.2249 26.5355 39.8665C27.3419 37.8057 27.9019 35.3865 28.2155 32.6089C28.4395 30.0553 28.4171 27.8825 28.1483 26.0905V25.9561C28.1483 25.5977 28.1931 25.3289 28.2827 25.1497ZM38.1611 63.9913C38.1611 64.5289 38.1611 65.0889 38.1611 65.6713C38.1611 65.9401 38.1835 66.1193 38.2283 66.2089C38.3179 66.2985 38.5195 66.3433 38.8331 66.3433H41.2523C41.5211 66.3433 41.7003 66.2761 41.7899 66.1417C41.8795 66.0521 41.9243 65.8505 41.9243 65.5369C41.9243 65.2681 41.9243 64.7977 41.9243 64.1257C41.9243 63.4985 41.9019 63.0281 41.8571 62.7145C41.8571 62.1769 42.1259 61.9081 42.6635 61.9081C42.9771 61.9081 43.4475 61.9081 44.0747 61.9081C44.7467 61.9081 45.2171 61.9305 45.4859 61.9753C45.7995 61.9753 46.0011 61.9305 46.0907 61.8409C46.2251 61.7065 46.2923 61.5049 46.2923 61.2361V60.4297C46.2475 59.7129 46.2251 59.1529 46.2251 58.7497C46.2699 58.3465 46.0459 58.1449 45.5531 58.1449H42.7979C42.4843 58.1897 42.2379 58.1449 42.0587 58.0105C41.9243 57.8313 41.8571 57.5849 41.8571 57.2713C41.9019 56.9129 41.9243 56.4201 41.9243 55.7929C41.9243 55.1657 41.9243 54.6729 41.9243 54.3145C41.9243 53.9561 41.7227 53.7769 41.3195 53.7769H38.7659C38.5419 53.7769 38.3627 53.8217 38.2283 53.9113C38.1387 54.0009 38.0939 54.2025 38.0939 54.5161C38.1387 54.7849 38.1611 55.2553 38.1611 55.9273C38.1611 56.5545 38.1611 57.0249 38.1611 57.3385C38.1611 57.8761 37.8923 58.1449 37.3547 58.1449H35.2715C34.6891 58.1897 34.3083 58.2345 34.1291 58.2793C33.9499 58.3241 33.8379 58.4361 33.7931 58.6153C33.7483 58.7945 33.7259 59.1529 33.7259 59.6905C33.7259 60.4969 33.7483 61.0345 33.7931 61.3033C33.8827 61.5721 34.0619 61.7513 34.3307 61.8409C34.5995 61.8857 35.1371 61.9305 35.9435 61.9753L36.6155 61.9081C36.9739 61.8633 37.2427 61.8409 37.4219 61.8409C37.6459 61.8857 37.8475 61.9977 38.0267 62.1769C38.2059 62.3113 38.2507 62.6921 38.1611 63.3193C38.1611 63.6329 38.1611 63.8569 38.1611 63.9913ZM31.1051 22.0585C29.8955 22.0585 28.9771 22.0809 28.3499 22.1257C27.7675 22.1257 27.4763 21.8345 27.4763 21.2521C27.3867 19.1465 27.4091 17.6009 27.5435 16.6153C27.8123 14.5097 28.4843 12.6953 29.5595 11.1721C30.8139 9.29046 32.5611 8.01366 34.8011 7.34166C37.3547 6.53526 39.5499 6.24406 41.3867 6.46806C43.7163 6.78166 45.6427 7.36406 47.1659 8.21526C49.0027 9.24566 50.3915 10.7017 51.3323 12.5833C51.9595 13.7481 52.3403 15.0921 52.4747 16.6153C52.6091 17.6905 52.6315 19.1017 52.5419 20.8489V20.9161C52.5419 21.0953 52.5195 21.2073 52.4747 21.2521C52.4299 21.2969 52.2955 21.2969 52.0715 21.2521C51.8923 21.2073 51.7355 21.4313 51.6011 21.9241V21.9913C51.5563 22.2153 51.4891 22.3497 51.3995 22.3945C51.3099 22.3945 51.1755 22.3497 50.9963 22.2601C49.2491 21.3641 47.9723 19.9081 47.1659 17.8921C47.0763 17.6233 46.9867 17.4889 46.8971 17.4889C46.8075 17.4441 46.6283 17.5113 46.3595 17.6905C43.1787 19.9305 39.4827 21.3193 35.2715 21.8569C33.8827 22.0361 32.4939 22.1033 31.1051 22.0585Z" fill="#A50014"/>
</svg>
