<svg width="33" height="32" fill="none" xmlns="http://www.w3.org/2000/svg"><path d="M12.988 14.243a14.075 14.075 0 005.27 5.269l1.178-1.65a1.334 1.334 0 011.725-.395 15.23 15.23 0 006.111 1.818 1.333 1.333 0 011.228 1.33v5.949a1.333 1.333 0 01-1.197 1.327 20.69 20.69 0 01-2.136.109C13.753 28 4.5 18.747 4.5 7.333c0-.717.036-1.429.11-2.136A1.333 1.333 0 015.935 4h5.95a1.333 1.333 0 011.329 1.228 15.23 15.23 0 001.818 6.11 1.333 1.333 0 01-.394 1.726l-1.651 1.179zm-3.363-.876l2.534-1.81a17.876 17.876 0 01-1.463-4.89H7.18a18.45 18.45 0 00-.012.666c-.001 9.942 8.057 18 17.999 18 .222 0 .445-.004.666-.013v-3.516a17.876 17.876 0 01-4.89-1.463l-1.81 2.534a16.596 16.596 0 01-2.117-1l-.077-.044a16.741 16.741 0 01-6.27-6.27l-.044-.077a16.589 16.589 0 01-1-2.117z" fill="#fff"/></svg>