<svg width="30" height="30" viewBox="0 0 30 30" fill="none" xmlns="http://www.w3.org/2000/svg">
<path d="M16.25 3.75H12.25C10.1498 3.75 9.0997 3.75 8.29754 4.15873C7.59193 4.51825 7.01825 5.09193 6.65873 5.79754C6.25 6.5997 6.25 7.6498 6.25 9.75V20.25C6.25 22.3502 6.25 23.4003 6.65873 24.2025C7.01825 24.9081 7.59193 25.4817 8.29754 25.8413C9.0997 26.25 10.1498 26.25 12.25 26.25H12.5M16.25 3.75L23.75 11.25M16.25 3.75V7.25C16.25 8.65013 16.25 9.3502 16.5225 9.88498C16.7622 10.3554 17.1446 10.7378 17.615 10.9775C18.1498 11.25 18.8499 11.25 20.25 11.25H23.75M23.75 11.25V12.5M17.5 26.25L20.0312 25.7438C20.2519 25.6996 20.3623 25.6775 20.4652 25.6372C20.5565 25.6014 20.6433 25.5549 20.7238 25.4988C20.8145 25.4355 20.894 25.356 21.0532 25.1968L26.25 20C26.9404 19.3096 26.9404 18.1904 26.25 17.5C25.5596 16.8096 24.4404 16.8096 23.75 17.5L18.5532 22.6968C18.394 22.856 18.3145 22.9355 18.2512 23.0262C18.1951 23.1067 18.1486 23.1935 18.1128 23.2848C18.0725 23.3877 18.0504 23.4981 18.0062 23.7188L17.5 26.25Z" stroke="white" stroke-width="2" stroke-linecap="round" stroke-linejoin="round"/>
</svg>
