<svg width="20" height="20" viewBox="0 0 20 20" fill="none" xmlns="http://www.w3.org/2000/svg">
<g clip-path="url(#clip0_2060_2243)">
<path d="M3.04928 2.52167L18.7201 7.745C18.8012 7.77188 18.8721 7.82306 18.9232 7.89158C18.9742 7.96011 19.003 8.04267 19.0055 8.12809C19.008 8.2135 18.9843 8.29763 18.9374 8.36908C18.8905 8.44052 18.8228 8.49583 18.7434 8.5275L11.4659 11.4383L7.77845 18.8133C7.74092 18.8884 7.68159 18.9504 7.60822 18.9912C7.53485 19.032 7.45086 19.0497 7.36727 19.042C7.28368 19.0342 7.20437 19.0014 7.13975 18.9478C7.07513 18.8942 7.0282 18.8224 7.00511 18.7417L2.51595 3.03083C2.49515 2.95785 2.49469 2.88056 2.5146 2.80733C2.53452 2.7341 2.57405 2.6677 2.62895 2.61529C2.68384 2.56288 2.752 2.52647 2.82608 2.50997C2.90016 2.49347 2.97733 2.49751 3.04928 2.52167Z" fill="#E6E6E6"/>
</g>
<defs>
<clipPath id="clip0_2060_2243">
<rect width="20" height="20" fill="white"/>
</clipPath>
</defs>
</svg>
