<svg width="17" height="17" viewBox="0 0 17 17" fill="none" xmlns="http://www.w3.org/2000/svg">
<g id="vuesax/outline/book">
<g id="book">
<path id="Vector" d="M8.50033 15.6405C8.28783 15.6405 8.07533 15.5909 7.89824 15.4917C6.57366 14.7692 4.24324 14.0042 2.78408 13.813L2.57866 13.7846C1.65074 13.6713 0.885742 12.8001 0.885742 11.858V3.30131C0.885742 2.74172 1.10533 2.23172 1.50908 1.86339C1.91283 1.49506 2.43699 1.31797 2.98949 1.36756C4.54783 1.48797 6.89949 2.26714 8.23116 3.10297L8.40116 3.20214C8.45074 3.23047 8.55699 3.23047 8.59949 3.20922L8.71283 3.13839C10.0445 2.30256 12.3962 1.50922 13.9616 1.37464C13.9757 1.37464 14.0324 1.37464 14.0466 1.37464C14.5637 1.32506 15.0949 1.50922 15.4916 1.87756C15.8953 2.24589 16.1149 2.75589 16.1149 3.31547V11.8651C16.1149 12.8142 15.3499 13.6784 14.4149 13.7917L14.1812 13.8201C12.722 14.0113 10.3845 14.7834 9.08824 15.4988C8.91824 15.598 8.71283 15.6405 8.50033 15.6405ZM2.81949 2.42297C2.59283 2.42297 2.38741 2.50089 2.22449 2.64964C2.04741 2.81256 1.94824 3.04631 1.94824 3.30131V11.858C1.94824 12.2759 2.30949 12.6796 2.71324 12.7363L2.92574 12.7646C4.51949 12.9771 6.96324 13.7776 8.37991 14.5496C8.44366 14.578 8.53574 14.5851 8.57116 14.5709C9.98783 13.7846 12.4457 12.9771 14.0466 12.7646L14.2874 12.7363C14.6912 12.6867 15.0524 12.2759 15.0524 11.858V3.30839C15.0524 3.04631 14.9532 2.81964 14.7762 2.64964C14.592 2.48672 14.3582 2.40881 14.0962 2.42297C14.082 2.42297 14.0253 2.42297 14.0112 2.42297C12.6582 2.54339 10.4766 3.27297 9.28658 4.01672L9.17324 4.09464C8.78366 4.33547 8.23116 4.33547 7.85574 4.10172L7.68574 4.00256C6.47449 3.25881 4.29283 2.53631 2.90449 2.42297C2.87616 2.42297 2.84783 2.42297 2.81949 2.42297Z" fill="#B8181C"/>
<path id="Vector_2" d="M8.5 15.0449C8.20958 15.0449 7.96875 14.8041 7.96875 14.5137V3.88867C7.96875 3.59826 8.20958 3.35742 8.5 3.35742C8.79042 3.35742 9.03125 3.59826 9.03125 3.88867V14.5137C9.03125 14.8112 8.79042 15.0449 8.5 15.0449Z" fill="#B8181C"/>
<path id="Vector_3" d="M5.48926 6.54492H3.89551C3.60509 6.54492 3.36426 6.30409 3.36426 6.01367C3.36426 5.72326 3.60509 5.48242 3.89551 5.48242H5.48926C5.77967 5.48242 6.02051 5.72326 6.02051 6.01367C6.02051 6.30409 5.77967 6.54492 5.48926 6.54492Z" fill="#B8181C"/>
<path id="Vector_4" d="M6.02051 8.66992H3.89551C3.60509 8.66992 3.36426 8.42909 3.36426 8.13867C3.36426 7.84826 3.60509 7.60742 3.89551 7.60742H6.02051C6.31092 7.60742 6.55176 7.84826 6.55176 8.13867C6.55176 8.42909 6.31092 8.66992 6.02051 8.66992Z" fill="#B8181C"/>
</g>
</g>
</svg>
