<svg width="17" height="17" viewBox="0 0 17 17" fill="none" xmlns="http://www.w3.org/2000/svg">
<g id="vuesax/outline/task-square">
<g id="task-square">
<path id="Vector" d="M12.4805 6.81445H8.76172C8.4713 6.81445 8.23047 6.57362 8.23047 6.2832C8.23047 5.99279 8.4713 5.75195 8.76172 5.75195H12.4805C12.7709 5.75195 13.0117 5.99279 13.0117 6.2832C13.0117 6.57362 12.778 6.81445 12.4805 6.81445Z" fill="#B8181C"/>
<path id="Vector_2" d="M5.04315 7.35272C4.90857 7.35272 4.77398 7.30314 4.66773 7.19689L4.13648 6.66564C3.93107 6.46022 3.93107 6.12022 4.13648 5.9148C4.3419 5.70939 4.6819 5.70939 4.88732 5.9148L5.04315 6.07064L6.26148 4.8523C6.4669 4.64689 6.8069 4.64689 7.01232 4.8523C7.21773 5.05772 7.21773 5.39772 7.01232 5.60314L5.41857 7.19689C5.3194 7.29605 5.18482 7.35272 5.04315 7.35272Z" fill="#B8181C"/>
<path id="Vector_3" d="M12.4805 11.7725H8.76172C8.4713 11.7725 8.23047 11.5316 8.23047 11.2412C8.23047 10.9508 8.4713 10.71 8.76172 10.71H12.4805C12.7709 10.71 13.0117 10.9508 13.0117 11.2412C13.0117 11.5316 12.778 11.7725 12.4805 11.7725Z" fill="#B8181C"/>
<path id="Vector_4" d="M5.04315 12.3107C4.90857 12.3107 4.77398 12.2611 4.66773 12.1549L4.13648 11.6236C3.93107 11.4182 3.93107 11.0782 4.13648 10.8728C4.3419 10.6674 4.6819 10.6674 4.88732 10.8728L5.04315 11.0286L6.26148 9.81031C6.4669 9.6049 6.8069 9.6049 7.01232 9.81031C7.21773 10.0157 7.21773 10.3557 7.01232 10.5611L5.41857 12.1549C5.3194 12.2541 5.18482 12.3107 5.04315 12.3107Z" fill="#B8181C"/>
<path id="Vector_5" d="M10.6253 16.1149H6.37533C2.52908 16.1149 0.885742 14.4716 0.885742 10.6253V6.37533C0.885742 2.52908 2.52908 0.885742 6.37533 0.885742H10.6253C14.4716 0.885742 16.1149 2.52908 16.1149 6.37533V10.6253C16.1149 14.4716 14.4716 16.1149 10.6253 16.1149ZM6.37533 1.94824C3.10991 1.94824 1.94824 3.10991 1.94824 6.37533V10.6253C1.94824 13.8907 3.10991 15.0524 6.37533 15.0524H10.6253C13.8907 15.0524 15.0524 13.8907 15.0524 10.6253V6.37533C15.0524 3.10991 13.8907 1.94824 10.6253 1.94824H6.37533Z" fill="#B8181C"/>
</g>
</g>
</svg>
