<svg width="17" height="17" viewBox="0 0 17 17" fill="none" xmlns="http://www.w3.org/2000/svg">
<g id="vuesax/outline/teacher">
<g id="teacher">
<path id="Vector" d="M8.50698 12.0419C7.9049 12.0419 7.29573 11.8861 6.82115 11.5815L2.55698 8.79774C1.76365 8.28065 1.28906 7.4094 1.28906 6.46024C1.28906 5.51107 1.76365 4.63982 2.55698 4.12274L6.82823 1.34607C7.7774 0.729822 9.25781 0.729822 10.1999 1.35315L14.4428 4.1369C15.2291 4.65399 15.7036 5.52524 15.7036 6.46732C15.7036 7.4094 15.2291 8.28065 14.4428 8.79774L10.1999 11.5815C9.72531 11.8932 9.11615 12.0419 8.50698 12.0419ZM8.50698 1.94815C8.10323 1.94815 7.69948 2.04024 7.40906 2.23857L3.1449 5.01524C2.64906 5.34107 2.35865 5.86524 2.35865 6.46024C2.35865 7.05524 2.64198 7.5794 3.1449 7.90524L7.40906 10.689C7.99698 11.0715 9.03115 11.0715 9.61906 10.689L13.862 7.90524C14.3578 7.5794 14.6411 7.05524 14.6411 6.46024C14.6411 5.86524 14.3578 5.34107 13.862 5.01524L9.61906 2.23149C9.32156 2.04732 8.91781 1.94815 8.50698 1.94815Z" fill="#B8181C"/>
<path id="Vector_2" d="M8.49968 16.1142C8.18801 16.1142 7.86926 16.0717 7.61426 15.9867L5.35468 15.2359C4.2851 14.8817 3.44218 13.713 3.44926 12.5867L3.45635 9.26465C3.45635 8.97423 3.69718 8.7334 3.9876 8.7334C4.27801 8.7334 4.51885 8.97423 4.51885 9.26465L4.51176 12.5867C4.51176 13.2526 5.06426 14.0176 5.69468 14.2301L7.95426 14.9809C8.2376 15.073 8.76176 15.073 9.0451 14.9809L11.3047 14.2301C11.9351 14.0176 12.4876 13.2526 12.4876 12.5938V9.30715C12.4876 9.01673 12.7284 8.7759 13.0188 8.7759C13.3093 8.7759 13.5501 9.01673 13.5501 9.30715V12.5938C13.5501 13.7201 12.7143 14.8817 11.6447 15.243L9.3851 15.9938C9.1301 16.0717 8.81135 16.1142 8.49968 16.1142Z" fill="#B8181C"/>
<path id="Vector_3" d="M15.1582 11.1562C14.8678 11.1562 14.627 10.9154 14.627 10.625V6.375C14.627 6.08458 14.8678 5.84375 15.1582 5.84375C15.4486 5.84375 15.6895 6.08458 15.6895 6.375V10.625C15.6895 10.9154 15.4486 11.1562 15.1582 11.1562Z" fill="#B8181C"/>
</g>
</g>
</svg>
