<svg width="50" height="50" viewBox="0 0 50 50" fill="none" xmlns="http://www.w3.org/2000/svg">
<g id="clipboard-text">
<path id="Icon" d="M24.9998 31.25H16.6665M33.3332 22.9167H16.6665M33.3332 10.4167C36.785 10.4167 39.5832 13.2149 39.5832 16.6667V33.75C39.5832 37.2503 39.5832 39.0005 38.902 40.3374C38.3028 41.5135 37.3466 42.4696 36.1706 43.0688C34.8337 43.75 33.0835 43.75 29.5832 43.75H20.4165C16.9162 43.75 15.166 43.75 13.8291 43.0688C12.6531 42.4696 11.6969 41.5135 11.0977 40.3374C10.4165 39.0005 10.4165 37.2503 10.4165 33.75V16.6667C10.4165 13.2149 13.2147 10.4167 16.6665 10.4167M16.6665 14.5833H33.3332V9.80647C33.3332 8.86324 32.9585 7.95863 32.2915 7.29167C31.6245 6.6247 30.7199 6.25 29.7767 6.25H20.223C19.2797 6.25 18.3751 6.6247 17.7082 7.29167C17.0412 7.95863 16.6665 8.86324 16.6665 9.80647V14.5833Z" stroke="#193C6D" stroke-width="2" stroke-linecap="round" stroke-linejoin="round"/>
</g>
</svg>
