<svg width="50" height="50" viewBox="0 0 50 50" fill="none" xmlns="http://www.w3.org/2000/svg">
<g id="briefcase-medical">
<path id="Icon" d="M33.3333 12.5C33.3333 9.04822 30.5351 6.25 27.0833 6.25H22.9167C19.4649 6.25 16.6667 9.04822 16.6667 12.5M20.8333 29.1667H29.1667M25 25V33.3333M16.25 43.75H33.75C37.2503 43.75 39.0005 43.75 40.3374 43.0688C41.5135 42.4696 42.4696 41.5135 43.0688 40.3374C43.75 39.0005 43.75 37.2503 43.75 33.75V24.5833C43.75 21.083 43.75 19.3328 43.0688 17.9959C42.4696 16.8199 41.5135 15.8638 40.3374 15.2645C39.0005 14.5833 37.2503 14.5833 33.75 14.5833H16.25C12.7497 14.5833 10.9995 14.5833 9.66256 15.2645C8.48655 15.8638 7.53042 16.8199 6.93121 17.9959C6.25 19.3328 6.25 21.083 6.25 24.5833V33.75C6.25 37.2503 6.25 39.0005 6.93121 40.3374C7.53042 41.5135 8.48655 42.4696 9.66256 43.0688C10.9995 43.75 12.7497 43.75 16.25 43.75Z" stroke="#193C6D" stroke-width="2" stroke-linecap="round" stroke-linejoin="round"/>
</g>
</svg>
