<svg width="50" height="50" viewBox="0 0 50 50" fill="none" xmlns="http://www.w3.org/2000/svg">
<g id="id-card-clip">
<path id="Icon" d="M16.6668 10.4167H15.0002C12.6666 10.4167 11.4998 10.4167 10.6085 10.8708C9.82453 11.2703 9.18711 11.9077 8.78764 12.6917C8.3335 13.583 8.3335 14.7498 8.3335 17.0833V35C8.3335 37.3336 8.3335 38.5003 8.78764 39.3916C9.18711 40.1756 9.82453 40.8131 10.6085 41.2125C11.4998 41.6667 12.6666 41.6667 15.0002 41.6667H35.0002C37.3337 41.6667 38.5005 41.6667 39.3918 41.2125C40.1758 40.8131 40.8132 40.1756 41.2127 39.3916C41.6668 38.5003 41.6668 37.3336 41.6668 35V17.0833C41.6668 14.7498 41.6668 13.583 41.2127 12.6917C40.8132 11.9077 40.1758 11.2703 39.3918 10.8708C38.5005 10.4167 37.3337 10.4167 35.0002 10.4167H33.3335M31.2502 33.3333C30.6593 30.956 28.0856 29.1667 25.0002 29.1667C21.9147 29.1667 19.3411 30.956 18.7502 33.3333M22.9168 6.25H27.0835M25.0002 20.8333H25.021M27.0835 20.8333C27.0835 21.9839 26.1508 22.9167 25.0002 22.9167C23.8496 22.9167 22.9168 21.9839 22.9168 20.8333C22.9168 19.6827 23.8496 18.75 25.0002 18.75C26.1508 18.75 27.0835 19.6827 27.0835 20.8333Z" stroke="#193C6D" stroke-width="2" stroke-linecap="round" stroke-linejoin="round"/>
</g>
</svg>
