<svg width="50" height="50" viewBox="0 0 50 50" fill="none" xmlns="http://www.w3.org/2000/svg">
<g id="face-smile">
<path id="Icon" d="M17.5 28.75C17.5 28.75 20.3125 32.5 25 32.5C29.6875 32.5 32.5 28.75 32.5 28.75M30.625 19.375H30.6438M19.375 19.375H19.3938M43.75 25C43.75 35.3553 35.3553 43.75 25 43.75C14.6447 43.75 6.25 35.3553 6.25 25C6.25 14.6447 14.6447 6.25 25 6.25C35.3553 6.25 43.75 14.6447 43.75 25ZM31.5625 19.375C31.5625 19.8928 31.1428 20.3125 30.625 20.3125C30.1072 20.3125 29.6875 19.8928 29.6875 19.375C29.6875 18.8572 30.1072 18.4375 30.625 18.4375C31.1428 18.4375 31.5625 18.8572 31.5625 19.375ZM20.3125 19.375C20.3125 19.8928 19.8928 20.3125 19.375 20.3125C18.8572 20.3125 18.4375 19.8928 18.4375 19.375C18.4375 18.8572 18.8572 18.4375 19.375 18.4375C19.8928 18.4375 20.3125 18.8572 20.3125 19.375Z" stroke="#193C6D" stroke-width="2" stroke-linecap="round" stroke-linejoin="round"/>
</g>
</svg>
