<svg width="63" height="72" viewBox="0 0 63 72" fill="none" xmlns="http://www.w3.org/2000/svg">
<path d="M54.5227 31.7928L54.5123 43.8736C54.515 48.5361 52.823 53.0407 49.7513 56.5484C47.8613 58.6409 46.8421 61.3765 46.9024 64.1956L46.9246 66.7987C46.9258 66.9351 46.9001 67.0703 46.849 67.1968C46.7979 67.3232 46.7224 67.4384 46.6268 67.5356C46.5312 67.6329 46.4174 67.7104 46.2919 67.7637C46.1663 67.8169 46.0315 67.845 45.8951 67.8462H45.8861C45.6123 67.8462 45.3495 67.738 45.155 67.5452C44.9605 67.3524 44.85 67.0905 44.8477 66.8167L44.8255 64.2115C44.7698 60.8863 45.9692 57.6622 48.1846 55.1818C50.9262 52.0525 52.4369 48.0333 52.4354 43.8729L52.4457 31.7915C52.4862 31.2389 52.3757 30.6858 52.1261 30.1912C51.8765 29.6966 51.4971 29.2791 51.0286 28.9835C50.6028 28.7398 50.1212 28.6104 49.6307 28.6078C49.1401 28.6053 48.6572 28.7297 48.2289 28.9689C47.7639 29.2697 47.3889 29.6906 47.1437 30.1872C46.8985 30.6837 46.7922 31.2373 46.836 31.7894C46.836 32.0648 46.7266 32.3289 46.5318 32.5237C46.3371 32.7184 46.0729 32.8278 45.7975 32.8278C45.5221 32.8278 45.258 32.7184 45.0632 32.5237C44.8685 32.3289 44.7591 32.0648 44.7591 31.7894V27.6058C44.7793 27.2116 44.716 26.8175 44.5735 26.4494C44.431 26.0813 44.2124 25.7474 43.932 25.4696C43.6516 25.1917 43.3158 24.9762 42.9464 24.837C42.577 24.6979 42.1824 24.6383 41.7884 24.6621H41.7849C41.3908 24.6375 40.996 24.6964 40.6263 24.8349C40.2565 24.9734 39.9202 25.1884 39.6392 25.4658C39.3582 25.7431 39.139 26.0767 38.9957 26.4446C38.8525 26.8126 38.7885 27.2066 38.808 27.6009H38.7796V31.7908C38.7796 32.0662 38.6702 32.3303 38.4754 32.5251C38.2807 32.7198 38.0166 32.8292 37.7411 32.8292C37.4657 32.8292 37.2016 32.7198 37.0068 32.5251C36.8121 32.3303 36.7027 32.0662 36.7027 31.7908L36.7061 6.4087C36.7267 6.01441 36.6638 5.62022 36.5216 5.2519C36.3794 4.88358 36.1611 4.54941 35.8809 4.27125C35.6007 3.99308 35.265 3.77718 34.8956 3.63765C34.5263 3.49812 34.1316 3.43811 33.7375 3.46154H33.7341C33.34 3.437 32.9452 3.4959 32.5754 3.63439C32.2057 3.77288 31.8693 3.98784 31.5884 4.26522C31.3074 4.5426 31.0881 4.87616 30.9449 5.24409C30.8016 5.61202 30.7377 6.00604 30.7571 6.40039L30.7454 31.7118C30.7454 31.9873 30.636 32.2514 30.4412 32.4462C30.2465 32.6409 29.9823 32.7503 29.7069 32.7503C29.4315 32.7503 29.1673 32.6409 28.9726 32.4462C28.7779 32.2514 28.6684 31.9873 28.6684 31.7118L28.683 8.76531C28.681 7.97724 28.3674 7.22194 27.8106 6.66423C27.2538 6.10652 26.499 5.79168 25.7109 5.78839H25.7054C24.9177 5.7922 24.1634 6.10649 23.606 6.66305C23.0487 7.21961 22.7334 7.97353 22.7284 8.76116L22.7077 37.2282C22.7074 37.4455 22.639 37.6573 22.512 37.8337C22.385 38.0102 22.2059 38.1423 21.9998 38.2115C21.7937 38.2807 21.5712 38.2835 21.3634 38.2194C21.1557 38.1554 20.9733 38.0279 20.8419 37.8547L15.8781 31.3158C13.9624 28.7931 11.1801 28.7862 9.90829 29.7519C8.74798 30.6318 8.87467 32.2373 10.2468 34.0442C13.464 38.219 15.9286 42.9229 17.5299 47.9444C18.5241 50.7738 19.3091 53.0093 21.1991 55.17C23.4199 57.6505 24.6215 60.8785 24.5631 64.2074L24.5409 66.8167C24.5385 67.0904 24.4282 67.3521 24.2338 67.5449C24.0395 67.7377 23.7769 67.846 23.5031 67.8462H23.4941C23.3578 67.845 23.223 67.8169 23.0974 67.7637C22.9719 67.7104 22.8581 67.6329 22.7625 67.5356C22.6669 67.4384 22.5914 67.3232 22.5403 67.1968C22.4892 67.0703 22.4635 66.9351 22.4647 66.7987L22.4861 64.1901C22.5496 61.3682 21.5288 58.6293 19.6338 56.5373C17.4821 54.0748 16.596 51.5527 15.5707 48.6325C14.0469 43.8132 11.6851 39.3003 8.5936 35.3015C6.05006 31.9479 7.0366 29.3248 8.65383 28.0973C10.9184 26.379 15.0231 26.7577 17.5334 30.06L20.6342 34.1446L20.6536 8.757C20.6585 7.4186 21.1927 6.1365 22.1396 5.19056C23.0864 4.24462 24.369 3.71165 25.7074 3.708H25.7158C26.8761 3.70665 28.0008 4.10903 28.8969 4.84616C29.2128 3.81903 29.8571 2.92402 30.731 2.29866C31.6049 1.67329 32.66 1.35216 33.7341 1.38462H33.7396C34.4065 1.36129 35.0712 1.47508 35.6923 1.71894C36.3135 1.9628 36.8781 2.33154 37.351 2.80235C37.824 3.27316 38.1953 3.83602 38.442 4.4561C38.6886 5.07617 38.8054 5.74028 38.7851 6.40731V23.4955C39.6716 22.8966 40.7179 22.5786 41.7877 22.5831H41.7939C42.4434 22.5604 43.0908 22.668 43.6981 22.8994C44.3054 23.1308 44.8602 23.4814 45.3299 23.9306C45.7996 24.3798 46.1746 24.9184 46.4329 25.5147C46.6912 26.1111 46.8276 26.7531 46.8339 27.4029C46.9502 27.3205 47.0693 27.2416 47.1946 27.1696C47.9378 26.7454 48.7793 26.5237 49.635 26.5265C50.4908 26.5293 51.3308 26.7565 52.0712 27.1855C52.8557 27.6628 53.4974 28.3424 53.9287 29.1531C54.36 29.9637 54.5652 30.8756 54.5227 31.7928ZM41.6077 12.4782H50.8784L49.3504 14.0061C49.1556 14.2008 49.0462 14.4649 49.0461 14.7404C49.046 15.0158 49.1554 15.28 49.3501 15.4748C49.5448 15.6696 49.809 15.7791 50.0844 15.7792C50.3598 15.7792 50.624 15.6699 50.8188 15.4752L54.1197 12.1742C54.3144 11.9795 54.4238 11.7154 54.4238 11.44C54.4238 11.1647 54.3144 10.9006 54.1197 10.7058L50.8188 7.40769C50.624 7.21298 50.3598 7.10362 50.0844 7.10368C49.809 7.10375 49.5448 7.21323 49.3501 7.40804C49.1554 7.60285 49.046 7.86704 49.0461 8.14248C49.0462 8.41792 49.1556 8.68205 49.3504 8.87677L50.8784 10.404H41.6077C41.3323 10.404 41.0681 10.5134 40.8734 10.7082C40.6786 10.9029 40.5692 11.167 40.5692 11.4425C40.5692 11.7179 40.6786 11.982 40.8734 12.1768C41.0681 12.3715 41.3323 12.4809 41.6077 12.4809V12.4782ZM9.35444 15.7791C9.5599 15.7792 9.76077 15.7183 9.93163 15.6042C10.1025 15.4901 10.2357 15.3279 10.3143 15.1381C10.3929 14.9483 10.4135 14.7394 10.3734 14.5379C10.3333 14.3364 10.2343 14.1513 10.089 14.0061L8.56106 12.4782H17.8214C18.0968 12.4782 18.3609 12.3687 18.5557 12.174C18.7504 11.9792 18.8598 11.7151 18.8598 11.4397C18.8598 11.1643 18.7504 10.9001 18.5557 10.7054C18.3609 10.5106 18.0968 10.4012 17.8214 10.4012H8.56106L10.089 8.874C10.1919 8.77912 10.2746 8.66441 10.3321 8.53676C10.3896 8.40911 10.4206 8.27116 10.4234 8.13119C10.4262 7.99123 10.4007 7.85214 10.3484 7.72229C10.2961 7.59244 10.218 7.47452 10.119 7.3756C10.0199 7.27668 9.90186 7.19881 9.77194 7.14667C9.64202 7.09453 9.50289 7.0692 9.36293 7.07219C9.22297 7.07519 9.08506 7.10646 8.95749 7.16411C8.82992 7.22177 8.71533 7.30462 8.6206 7.40769L5.31967 10.7086C5.12499 10.9034 5.01562 11.1674 5.01562 11.4428C5.01562 11.7182 5.12499 11.9823 5.31967 12.177L8.6206 15.4779C8.71701 15.574 8.83149 15.6501 8.95744 15.7018C9.08338 15.7535 9.21831 15.7798 9.35444 15.7791Z" fill="white"/>
</svg>
