<svg width="50" height="50" viewBox="0 0 50 50" fill="none" xmlns="http://www.w3.org/2000/svg">
<g id="virus-covid-19">
<path id="Icon" d="M37.5 25C37.5 31.9036 31.9036 37.5 25 37.5M37.5 25C37.5 18.0964 31.9036 12.5 25 12.5M37.5 25H43.75M25 37.5C18.0964 37.5 12.5 31.9036 12.5 25M25 37.5V43.75M12.5 25C12.5 18.0964 18.0964 12.5 25 12.5M12.5 25H6.25M25 12.5V6.25M38.5417 11.4583L33.8393 16.1616M16.1574 33.835L11.4583 38.5417M36.4583 9.375L40.625 13.5417M9.375 36.4583L13.5417 40.625M22.9167 6.25H27.0833M22.9167 43.75H27.0833M11.4583 11.4583L15.625 15.625M33.8523 33.8253L37.5 37.5M13.5417 9.375L9.375 13.5417M40.625 36.4583L36.4583 40.625M43.75 22.9167V27.0833M6.25 22.9167V27.0833M29.1667 29.1667H29.1875M21.875 23.9583H21.8958M23.9583 23.9583C23.9583 25.1089 23.0256 26.0417 21.875 26.0417C20.7244 26.0417 19.7917 25.1089 19.7917 23.9583C19.7917 22.8077 20.7244 21.875 21.875 21.875C23.0256 21.875 23.9583 22.8077 23.9583 23.9583Z" stroke="#193C6D" stroke-width="2" stroke-linecap="round" stroke-linejoin="round"/>
</g>
</svg>
