<svg width="1096" height="536" viewBox="0 0 1096 536" fill="none" xmlns="http://www.w3.org/2000/svg">
<path opacity="0.3" d="M83 425.8H57.3V400H31.7V425.8H6V451.3H31.7V477.1H57.3V451.3H83V425.8Z" fill="white"/>
<path opacity="0.3" d="M102 34.1323H67.9558V0H34.0442V34.1323H0V67.8677H34.0442V102H67.9558V67.8677H102V34.1323Z" fill="white"/>
<path opacity="0.4" d="M1107 82.8405H1062.28V38H1017.72V82.8405H973V127.16H1017.72V172H1062.28V127.16H1107V82.8405Z" fill="white"/>
<path opacity="0.5" d="M359 501.739H340.309V483H321.691V501.739H303V520.261H321.691V539H340.309V520.261H359V501.739Z" fill="white"/>
<path opacity="0.3" d="M749 207.8H723.3V182H697.7V207.8H672V233.3H697.7V259.1H723.3V233.3H749V207.8Z" fill="white"/>
<path opacity="0.5" d="M1032 424.739H1013.31V406H994.691V424.739H976V443.261H994.691V462H1013.31V443.261H1032V424.739Z" fill="white"/>
<path opacity="0.5" d="M808 492.377H796.652V481H785.348V492.377H774V503.623H785.348V515H796.652V503.623H808V492.377Z" fill="white"/>
</svg>
