<svg width="24" height="24" viewBox="0 0 24 24" fill="none" xmlns="http://www.w3.org/2000/svg">
<g id="circle-location-arrow">
<g id="Icon">
<path d="M7.91393 12.6467C7.31859 12.4152 7.02091 12.2995 6.93401 12.1327C6.85867 11.9881 6.85857 11.8158 6.93374 11.6711C7.02044 11.5042 7.31798 11.3881 7.91306 11.1559L14.3008 8.6631C14.838 8.45347 15.1066 8.34865 15.2782 8.40599C15.4272 8.45578 15.5442 8.57275 15.594 8.7218C15.6513 8.89343 15.5465 9.16202 15.3369 9.6992L12.8441 16.0869C12.6119 16.682 12.4958 16.9796 12.3289 17.0663C12.1842 17.1414 12.0119 17.1413 11.8673 17.066C11.7005 16.9791 11.5848 16.6814 11.3533 16.0861L10.5178 13.9378C10.4708 13.817 10.4473 13.7565 10.411 13.7057C10.3789 13.6606 10.3394 13.6211 10.2943 13.589C10.2435 13.5527 10.183 13.5292 10.0622 13.4822L7.91393 12.6467Z" stroke="#193C6D" stroke-width="2" stroke-linecap="round" stroke-linejoin="round"/>
<path d="M21 12C21 16.9706 16.9706 21 12 21C7.02944 21 3 16.9706 3 12C3 7.02944 7.02944 3 12 3C16.9706 3 21 7.02944 21 12Z" stroke="#193C6D" stroke-width="2" stroke-linecap="round" stroke-linejoin="round"/>
</g>
</g>
</svg>
