<svg width="17" height="17" viewBox="0 0 17 17" fill="none" xmlns="http://www.w3.org/2000/svg">
<g id="vuesax/outline/info-circle">
<g id="info-circle">
<path id="Vector" d="M8.50033 16.1149C4.29991 16.1149 0.885742 12.7007 0.885742 8.50033C0.885742 4.29991 4.29991 0.885742 8.50033 0.885742C12.7007 0.885742 16.1149 4.29991 16.1149 8.50033C16.1149 12.7007 12.7007 16.1149 8.50033 16.1149ZM8.50033 1.94824C4.88783 1.94824 1.94824 4.88783 1.94824 8.50033C1.94824 12.1128 4.88783 15.0524 8.50033 15.0524C12.1128 15.0524 15.0524 12.1128 15.0524 8.50033C15.0524 4.88783 12.1128 1.94824 8.50033 1.94824Z" fill="#B8181C"/>
<path id="Vector_2" d="M8.5 7.43783C8.79042 7.43783 9.03125 7.67866 9.03125 7.96908L9.03125 11.5107C9.03125 11.8012 8.79042 12.042 8.5 12.042C8.20958 12.042 7.96875 11.8012 7.96875 11.5107L7.96875 7.96908C7.96875 7.67866 8.20958 7.43783 8.5 7.43783Z" fill="#B8181C"/>
<path id="Vector_3" d="M8.50065 5.1357C8.59273 5.1357 8.68482 5.15695 8.76982 5.19237C8.85482 5.22779 8.93273 5.27737 9.00357 5.34112C9.06732 5.41195 9.1169 5.48279 9.15232 5.57487C9.18773 5.65987 9.20898 5.75195 9.20898 5.84404C9.20898 5.93612 9.18773 6.0282 9.15232 6.1132C9.1169 6.1982 9.06732 6.27612 9.00357 6.34695C8.93273 6.4107 8.85482 6.46029 8.76982 6.4957C8.59982 6.56654 8.40148 6.56654 8.23148 6.4957C8.14648 6.46029 8.06857 6.4107 7.99773 6.34695C7.93398 6.27612 7.8844 6.1982 7.84898 6.1132C7.81357 6.0282 7.79232 5.93612 7.79232 5.84404C7.79232 5.75195 7.81357 5.65987 7.84898 5.57487C7.8844 5.48279 7.93398 5.41195 7.99773 5.34112C8.06857 5.27737 8.14648 5.22779 8.23148 5.19237C8.31648 5.15695 8.40857 5.1357 8.50065 5.1357Z" fill="#B8181C"/>
</g>
</g>
</svg>
