<svg width="17" height="17" viewBox="0 0 17 17" fill="none" xmlns="http://www.w3.org/2000/svg">
<g id="vuesax/outline/messages">
<g id="messages">
<path id="Vector" d="M7.07657 16.1358C6.65157 16.1358 6.24782 15.9233 5.97157 15.5479L5.12158 14.4146C5.12158 14.4217 5.08616 14.4004 5.07199 14.4004H4.80992C2.38741 14.4004 0.885742 13.7417 0.885742 10.4763V7.64292C0.885742 4.66084 2.70617 3.88167 4.23617 3.74709C4.40617 3.72584 4.6045 3.71875 4.80992 3.71875H9.34324C11.9074 3.71875 13.2674 5.07876 13.2674 7.64292V10.4763C13.2674 10.6817 13.2603 10.88 13.232 11.0713C13.1045 12.58 12.3253 14.4004 9.34324 14.4004H9.05992L8.18157 15.5479C7.90532 15.9233 7.50157 16.1358 7.07657 16.1358ZM4.80992 4.78125C4.647 4.78125 4.49116 4.78833 4.34241 4.8025C2.69908 4.94417 1.94824 5.84376 1.94824 7.64292V10.4763C1.94824 12.9058 2.69908 13.3379 4.80992 13.3379H5.09324C5.41199 13.3379 5.77324 13.515 5.97157 13.77L6.82158 14.9104C6.97741 15.1229 7.17575 15.1229 7.33158 14.9104L8.18157 13.7771C8.38698 13.5008 8.71283 13.3379 9.05992 13.3379H9.34324C11.1424 13.3379 12.042 12.58 12.1766 10.965C12.1978 10.795 12.2049 10.6392 12.2049 10.4763V7.64292C12.2049 5.66667 11.3195 4.78125 9.34324 4.78125H4.80992Z" fill="#B8181C"/>
<path id="Vector_2" d="M7.0765 10.0514C6.67983 10.0514 6.36816 9.73268 6.36816 9.3431C6.36816 8.95352 6.68691 8.63477 7.0765 8.63477C7.46608 8.63477 7.78483 8.95352 7.78483 9.3431C7.78483 9.73268 7.47316 10.0514 7.0765 10.0514Z" fill="#B8181C"/>
<path id="Vector_3" d="M9.3431 10.0514C8.94643 10.0514 8.63477 9.73268 8.63477 9.3431C8.63477 8.95352 8.95352 8.63477 9.3431 8.63477C9.73268 8.63477 10.0514 8.95352 10.0514 9.3431C10.0514 9.73268 9.73268 10.0514 9.3431 10.0514Z" fill="#B8181C"/>
<path id="Vector_4" d="M4.81673 10.0514C4.42007 10.0514 4.1084 9.73268 4.1084 9.3431C4.1084 8.95352 4.42715 8.63477 4.81673 8.63477C5.20632 8.63477 5.52507 8.95352 5.52507 9.3431C5.52507 9.73268 5.20632 10.0514 4.81673 10.0514Z" fill="#B8181C"/>
<path id="Vector_5" d="M12.7073 11.5391C12.5656 11.5391 12.4239 11.4824 12.3247 11.3762C12.2114 11.2628 12.1618 11.0999 12.1831 10.9441C12.2043 10.7953 12.2114 10.6395 12.2114 10.4766V7.64325C12.2114 5.667 11.326 4.78158 9.34976 4.78158H4.81641C4.65349 4.78158 4.49768 4.78866 4.34893 4.80282C4.19309 4.82407 4.03016 4.7674 3.91683 4.66115C3.8035 4.54782 3.73974 4.392 3.75391 4.23617C3.88141 2.70617 4.66766 0.885742 7.64974 0.885742H12.1831C14.7473 0.885742 16.1072 2.24575 16.1072 4.80991V7.64325C16.1072 10.6253 14.2868 11.4045 12.7568 11.5391C12.7356 11.5391 12.7214 11.5391 12.7073 11.5391ZM4.90142 3.71908H9.34267C11.9068 3.71908 13.2668 5.07908 13.2668 7.64325V10.3845C14.471 10.087 15.0377 9.20158 15.0377 7.64325V4.80991C15.0377 2.83366 14.1523 1.94824 12.176 1.94824H7.64267C6.08434 1.94824 5.20601 2.51491 4.90142 3.71908Z" fill="#B8181C"/>
</g>
</g>
</svg>
