<svg width="17" height="17" viewBox="0 0 17 17" fill="none" xmlns="http://www.w3.org/2000/svg">
<g id="vuesax/outline/shield-tick">
<g id="shield-tick">
<path id="Vector" d="M8.49987 16.1212C7.72779 16.1212 6.96279 15.8945 6.3607 15.4483L3.31487 13.1745C2.50737 12.5724 1.87695 11.3116 1.87695 10.3129V5.04286C1.87695 3.95203 2.67737 2.79036 3.70445 2.40786L7.23904 1.08328C7.94029 0.821198 9.04529 0.821198 9.74654 1.08328L13.2811 2.40786C14.3082 2.79036 15.1086 3.95203 15.1086 5.04286V10.3058C15.1086 11.3116 14.4782 12.5654 13.6707 13.1674L10.6249 15.4412C10.037 15.8945 9.27195 16.1212 8.49987 16.1212ZM7.61445 2.08203L4.07987 3.40661C3.47779 3.63328 2.94654 4.39828 2.94654 5.04995V10.3129C2.94654 10.9858 3.42112 11.9279 3.95237 12.3245L6.9982 14.5983C7.81279 15.2074 9.18695 15.2074 10.0086 14.5983L13.0545 12.3245C13.5928 11.9208 14.0603 10.9858 14.0603 10.3129V5.04286C14.0603 4.39828 13.529 3.63328 12.927 3.39953L9.39237 2.07495C8.9107 1.90495 8.08904 1.90495 7.61445 2.08203Z" fill="#B8181C"/>
<path id="Vector_2" d="M7.55075 10.0792C7.41617 10.0792 7.28159 10.0296 7.17534 9.92339L6.03492 8.78297C5.82951 8.57755 5.82951 8.23755 6.03492 8.03214C6.24034 7.82672 6.58034 7.82672 6.78575 8.03214L7.55075 8.79714L10.2212 6.12672C10.4266 5.9213 10.7666 5.9213 10.972 6.12672C11.1774 6.33214 11.1774 6.67214 10.972 6.87755L7.92617 9.92339C7.81992 10.0296 7.68534 10.0792 7.55075 10.0792Z" fill="#B8181C"/>
</g>
</g>
</svg>
