<svg width="20" height="20" viewBox="0 0 20 20" fill="none" xmlns="http://www.w3.org/2000/svg">
<g id="Group 277131361">
<path id="Subtract" fill-rule="evenodd" clip-rule="evenodd" d="M3 0C1.34315 0 0 1.34315 0 3V17C0 18.6569 1.34315 20 3 20H17C18.6569 20 20 18.6569 20 17V3C20 1.34315 18.6569 0 17 0H3ZM11.624 5.20548L6.47339 14.9041H8.25368L13.4179 5.20548H11.624ZM10.8358 12.3973C10.8358 13.1187 11.0849 13.7352 11.5832 14.2466C12.0906 14.7489 12.7022 15 13.4179 15C14.1336 15 14.7407 14.7489 15.239 14.2466C15.7463 13.7352 16 13.1187 16 12.3973C16 11.6758 15.7463 11.0639 15.239 10.5616C14.7407 10.0502 14.1336 9.79452 13.4179 9.79452C12.7022 9.79452 12.0906 10.0502 11.5832 10.5616C11.0849 11.0639 10.8358 11.6758 10.8358 12.3973ZM4 7.60274C4 8.3242 4.24915 8.94064 4.74745 9.45205C5.25481 9.95434 5.86636 10.2055 6.58211 10.2055C7.29785 10.2055 7.90487 9.95434 8.40317 9.45205C8.91053 8.94064 9.16421 8.3242 9.16421 7.60274C9.16421 6.88128 8.91053 6.26941 8.40317 5.76712C7.90487 5.25571 7.29785 5 6.58211 5C5.86636 5 5.25481 5.25571 4.74745 5.76712C4.24915 6.26941 4 6.88128 4 7.60274ZM5.59003 7.60274C5.59003 7.32877 5.68516 7.09589 5.87542 6.90411C6.07475 6.7032 6.31031 6.60274 6.58211 6.60274C6.85391 6.60274 7.08494 6.7032 7.2752 6.90411C7.47452 7.09589 7.57418 7.32877 7.57418 7.60274C7.57418 7.87671 7.47452 8.11415 7.2752 8.31507C7.08494 8.50685 6.85391 8.60274 6.58211 8.60274C6.31031 8.60274 6.07475 8.50685 5.87542 8.31507C5.68516 8.11415 5.59003 7.87671 5.59003 7.60274ZM12.4258 12.3973C12.4258 12.1233 12.521 11.8904 12.7112 11.6986C12.9105 11.4977 13.1461 11.3973 13.4179 11.3973C13.6897 11.3973 13.9207 11.4977 14.111 11.6986C14.3103 11.8904 14.41 12.1233 14.41 12.3973C14.41 12.6712 14.3103 12.9087 14.111 13.1096C13.9207 13.3014 13.6897 13.3973 13.4179 13.3973C13.1461 13.3973 12.9105 13.3014 12.7112 13.1096C12.521 12.9087 12.4258 12.6712 12.4258 12.3973Z" fill="#193C6D"/>
</g>
</svg>
