<svg width="20" height="20" viewBox="0 0 20 20" fill="none" xmlns="http://www.w3.org/2000/svg">
<g id="sos">
<path id="Subtract" fill-rule="evenodd" clip-rule="evenodd" d="M3 0C1.34315 0 0 1.34315 0 3V17C0 18.6569 1.34315 20 3 20H17C18.6569 20 20 18.6569 20 17V3C20 1.34315 18.6569 0 17 0H3ZM10.0173 13C9.20876 13 8.59087 12.7795 8.16359 12.3385C7.59047 11.7974 7.30391 11.0179 7.30391 10C7.30391 8.96154 7.59047 8.18205 8.16359 7.66154C8.59087 7.22051 9.20876 7 10.0173 7C10.8258 7 11.4437 7.22051 11.871 7.66154C12.4415 8.18205 12.7268 8.96154 12.7268 10C12.7268 11.0179 12.4415 11.7974 11.871 12.3385C11.4437 12.7795 10.8258 13 10.0173 13ZM11.1341 11.4769C11.4079 11.1308 11.5447 10.6385 11.5447 10C11.5447 9.3641 11.4066 8.87308 11.1302 8.52692C10.8565 8.17821 10.4855 8.00385 10.0173 8.00385C9.54905 8.00385 9.1755 8.17692 8.89662 8.52308C8.61773 8.86923 8.47829 9.36154 8.47829 10C8.47829 10.6385 8.61773 11.1308 8.89662 11.4769C9.1755 11.8231 9.54905 11.9962 10.0173 11.9962C10.4855 11.9962 10.8578 11.8231 11.1341 11.4769ZM4.32574 12.0231C4.60462 12.0231 4.83105 11.9923 5.00504 11.9308C5.33509 11.8128 5.50012 11.5936 5.50012 11.2731C5.50012 11.0859 5.41825 10.941 5.2545 10.8385C5.09075 10.7385 4.83361 10.65 4.48309 10.5731L3.88438 10.4385C3.29591 10.3051 2.8891 10.1603 2.66395 10.0038C2.28272 9.74231 2.09211 9.33333 2.09211 8.77692C2.09211 8.26923 2.27633 7.84744 2.64476 7.51154C3.01319 7.17564 3.55433 7.00769 4.26817 7.00769C4.86432 7.00769 5.37219 7.16667 5.7918 7.48462C6.21396 7.8 6.43528 8.25897 6.45574 8.86154H5.31974C5.29927 8.52051 5.15088 8.2782 4.87455 8.13462C4.69033 8.03974 4.46134 7.99231 4.18757 7.99231C3.88311 7.99231 3.64004 8.05385 3.45838 8.17692C3.27673 8.3 3.1859 8.4718 3.1859 8.69231C3.1859 8.89487 3.27545 9.04615 3.45455 9.14615C3.56968 9.21282 3.8153 9.29103 4.19141 9.38077L5.16623 9.61539C5.59351 9.71795 5.91589 9.85513 6.13337 10.0269C6.4711 10.2936 6.63996 10.6795 6.63996 11.1846C6.63996 11.7026 6.44167 12.1333 6.04509 12.4769C5.65108 12.8179 5.09331 12.9885 4.37179 12.9885C3.63492 12.9885 3.05541 12.8205 2.63325 12.4846C2.21108 12.1462 2 11.6821 2 11.0923H3.12833C3.16415 11.3513 3.23451 11.5449 3.33941 11.6731C3.5313 11.9064 3.86008 12.0231 4.32574 12.0231ZM16.3651 11.9308C16.1911 11.9923 15.9647 12.0231 15.6858 12.0231C15.2201 12.0231 14.8913 11.9064 14.6994 11.6731C14.5945 11.5449 14.5242 11.3513 14.4884 11.0923H13.36C13.36 11.6821 13.5711 12.1462 13.9933 12.4846C14.4154 12.8205 14.995 12.9885 15.7318 12.9885C16.4533 12.9885 17.0111 12.8179 17.4051 12.4769C17.8017 12.1333 18 11.7026 18 11.1846C18 10.6795 17.8311 10.2936 17.4934 10.0269C17.2759 9.85513 16.9535 9.71795 16.5263 9.61539L15.5515 9.38077C15.1753 9.29103 14.9297 9.21282 14.8146 9.14615C14.6355 9.04615 14.5459 8.89487 14.5459 8.69231C14.5459 8.4718 14.6368 8.3 14.8184 8.17692C15.0001 8.05385 15.2431 7.99231 15.5476 7.99231C15.8214 7.99231 16.0504 8.03974 16.2346 8.13462C16.5109 8.2782 16.6593 8.52051 16.6798 8.86154H17.8158C17.7953 8.25897 17.574 7.8 17.1518 7.48462C16.7322 7.16667 16.2244 7.00769 15.6282 7.00769C14.9144 7.00769 14.3732 7.17564 14.0048 7.51154C13.6364 7.84744 13.4521 8.26923 13.4521 8.77692C13.4521 9.33333 13.6428 9.74231 14.024 10.0038C14.2491 10.1603 14.656 10.3051 15.2444 10.4385L15.8431 10.5731C16.1937 10.65 16.4508 10.7385 16.6145 10.8385C16.7783 10.941 16.8602 11.0859 16.8602 11.2731C16.8602 11.5936 16.6951 11.8128 16.3651 11.9308Z" fill="#193C6D"/>
</g>
</svg>
